<svg xmlns="http://www.w3.org/2000/svg" width="985" height="1136" viewBox="0 0 985 1136"><rect width="100%" height="100%" fill="white"/><g font-family="Helvetica,Arial,sans-serif" font-size="11"><text x="12" y="18" font-size="14" font-weight="bold">The Met Fifth Avenue — Floor 3</text><text x="12" y="34">■ gallery <tspan fill="#888">(grey: non-gallery rooms)</tspan> · <tspan fill="#e4002b">red: doorway nodes/edges</tspan> · <tspan fill="#3a7bd5">blue: within-room walk edges</tspan> · <tspan fill="#2c9c5a">▲ stairs</tspan> · <tspan fill="#7a4dc9">■ elevator</tspan></text></g><path d="M478.3,205.7L506.0,155.7L506.0,155.7L515.8,138.2L561.5,163.5L580.6,174.2L590.4,179.5L581.9,194.9L571.3,214.0L576.2,216.8L569.1,229.6L564.6,237.7L557.9,249.8L533.4,236.1L523.2,230.6L508.9,222.6L503.5,219.7L482.8,208.1L478.3,205.7Z" fill="#e9e9e9" stroke="#888" stroke-width="0.6" fill-rule="evenodd"/><path d="M833.9,192.3L847.9,200.0L869.5,212.0L896.7,227.1L913.6,236.4L919.8,239.8L904.4,267.6L901.5,272.9L895.3,269.5L878.3,260.1L851.1,245.1L829.6,233.1L815.6,225.3L818.5,220.3L821.4,214.9L824.0,210.3L833.9,192.3Z" fill="#e9e9e9" stroke="#888" stroke-width="0.6" fill-rule="evenodd"/><path d="M891.0,291.8L900.5,297.1L918.1,306.8L923.9,310.1L919.6,317.8L895.9,360.6L887.1,376.5L875.2,398.0L864.8,392.2L870.6,381.8L876.8,370.8L854.2,358.3L863.0,342.4L878.8,313.9L886.7,299.5L888.9,295.6L891.0,291.8Z" fill="#e9e9e9" stroke="#888" stroke-width="0.6" fill-rule="evenodd"/><path d="M478.3,205.7L506.0,155.7L506.0,155.7L515.8,138.2L561.5,163.5L551.3,181.8L526.2,167.9L524.9,167.2L524.8,167.2L510.1,158.9L505.7,166.8L497.0,182.4L488.5,197.8L482.8,208.1L478.3,205.7Z" fill="#e9e9e9" stroke="#888" stroke-width="0.6" fill-rule="evenodd"/><path d="M869.5,212.0L896.7,227.1L878.3,260.1L851.1,245.1L869.5,212.0Z" fill="#f7efe0" stroke="#888" stroke-width="0.6" fill-rule="evenodd" stroke-dasharray="3,2" opacity="0.55"/><path d="M517.8,182.9L543.1,196.8L552.3,202.0L540.1,224.1L539.1,225.8L529.0,220.1L514.7,212.2L506.3,207.5L504.7,206.7L513.1,191.4L517.8,182.9Z" fill="#f7efe0" stroke="#888" stroke-width="0.6" fill-rule="evenodd"/><path d="M886.7,299.5L896.1,304.7L901.6,307.8L904.0,309.2L901.1,314.5L896.1,323.4L880.3,352.0L868.4,345.3L863.0,342.4L878.8,313.9L886.7,299.5Z" fill="#f7efe0" stroke="#888" stroke-width="0.6" fill-rule="evenodd"/><path d="M847.9,200.0L869.5,212.0L851.1,245.1L829.6,233.1L832.4,228.0L838.0,218.0L847.9,200.0Z" fill="#f7efe0" stroke="#888" stroke-width="0.6" fill-rule="evenodd" stroke-dasharray="3,2" opacity="0.55"/><path d="M904.0,309.2L913.8,314.6L919.6,317.8L895.9,360.6L894.4,359.8L889.4,357.1L880.3,352.0L896.1,323.4L901.1,314.5L904.0,309.2Z" fill="#f7efe0" stroke="#888" stroke-width="0.6" fill-rule="evenodd"/><path d="M896.7,227.1L913.6,236.4L898.2,264.2L895.3,269.5L878.3,260.1L896.7,227.1Z" fill="#f7efe0" stroke="#888" stroke-width="0.6" fill-rule="evenodd" stroke-dasharray="3,2" opacity="0.55"/><path d="M863.0,342.4L868.4,345.3L880.3,352.0L889.4,357.1L894.4,359.8L895.9,360.6L887.1,376.5L881.9,373.6L876.8,370.8L854.2,358.3L863.0,342.4Z" fill="#f7efe0" stroke="#888" stroke-width="0.6" fill-rule="evenodd"/><path d="M497.0,182.4L505.5,167.2L505.4,167.2L505.7,166.8L510.1,158.9L526.2,167.9L521.8,175.8L517.8,182.9L513.1,191.4L497.0,182.4Z" fill="#f7efe0" stroke="#888" stroke-width="0.6" fill-rule="evenodd"/><path d="M552.3,202.0L568.8,211.1L561.1,225.2L556.5,233.2L540.1,224.1L552.3,202.0Z" fill="#f7efe0" stroke="#888" stroke-width="0.6" fill-rule="evenodd"/><path d="M540.1,224.1L556.5,233.2L564.6,237.7L557.9,249.8L533.4,236.1L539.1,225.8L540.1,224.1Z" fill="#e9e9e9" stroke="#888" stroke-width="0.6" fill-rule="evenodd"/><path d="M564.6,173.0L572.4,177.4L567.2,186.7L572.1,189.5L581.9,194.9L571.3,214.0L576.2,216.8L569.1,229.6L561.1,225.2L568.8,211.1L577.1,196.1L560.6,186.9L557.7,185.4L564.6,173.0Z" fill="#e9e9e9" stroke="#888" stroke-width="0.6" fill-rule="evenodd"/><path d="M833.9,192.3L847.9,200.0L838.0,218.0L829.0,213.1L824.0,210.3L833.9,192.3Z" fill="#f7efe0" stroke="#888" stroke-width="0.6" fill-rule="evenodd" stroke-dasharray="3,2" opacity="0.55"/><path d="M560.6,186.9L577.1,196.1L568.8,211.1L552.3,202.0L560.6,186.9Z" fill="#f7efe0" stroke="#888" stroke-width="0.6" fill-rule="evenodd"/><path d="M497.0,182.4L513.1,191.4L504.7,206.7L496.5,202.1L488.6,197.8L497.0,182.4Z" fill="#f7efe0" stroke="#888" stroke-width="0.6" fill-rule="evenodd"/><path d="M526.2,167.9L551.3,181.8L547.0,189.7L521.8,175.8L526.2,167.9Z" fill="#f7efe0" stroke="#888" stroke-width="0.6" fill-rule="evenodd"/><path d="M521.8,175.8L547.0,189.7L543.1,196.8L517.8,182.9L521.8,175.8Z" fill="#eef3f7" stroke="#888" stroke-width="0.6" fill-rule="evenodd"/><path d="M514.7,212.2L529.0,220.1L523.2,230.6L508.9,222.6L514.7,212.2Z" fill="#f7efe0" stroke="#888" stroke-width="0.6" fill-rule="evenodd"/><path d="M580.6,174.2L590.4,179.5L581.9,194.9L572.1,189.5L577.3,180.1L580.6,174.2Z" fill="#e9e9e9" stroke="#888" stroke-width="0.6" fill-rule="evenodd"/><path d="M488.6,197.8L496.5,202.1L493.6,207.3L503.4,212.7L506.3,214.4L503.5,219.7L482.8,208.1L488.6,197.8Z" fill="#e9e9e9" stroke="#888" stroke-width="0.6" fill-rule="evenodd"/><path d="M551.3,181.8L557.7,185.4L560.6,186.9L552.3,202.0L543.1,196.8L547.0,189.7L551.3,181.8Z" fill="#f7efe0" stroke="#888" stroke-width="0.6" fill-rule="evenodd"/><path d="M900.5,297.1L918.1,306.8L917.3,308.2L914.6,313.1L913.8,314.6L901.6,307.8L896.1,304.7L898.3,301.0L900.5,297.1Z" fill="#f2f2f2" stroke="#888" stroke-width="0.6" fill-rule="evenodd"/><path d="M529.0,220.1L539.1,225.8L533.4,236.1L523.2,230.6L529.0,220.1Z" fill="#f7efe0" stroke="#888" stroke-width="0.6" fill-rule="evenodd" stroke-dasharray="3,2" opacity="0.55"/><path d="M829.0,213.1L838.0,218.0L832.4,228.0L823.5,223.1L826.5,217.7L829.0,213.1Z" fill="#f2f2f2" stroke="#888" stroke-width="0.6" fill-rule="evenodd"/><path d="M506.3,207.5L514.7,212.2L508.9,222.6L503.5,219.7L506.3,214.4L503.4,212.7L506.3,207.5Z" fill="#f2f2f2" stroke="#888" stroke-width="0.6" fill-rule="evenodd"/><path d="M818.5,220.3L832.4,228.0L829.6,233.1L815.6,225.3L818.5,220.3Z" fill="#e9e9e9" stroke="#888" stroke-width="0.6" fill-rule="evenodd"/><path d="M891.0,291.8L900.5,297.1L898.3,301.0L888.9,295.6L891.0,291.8Z" fill="#e9e9e9" stroke="#888" stroke-width="0.6" fill-rule="evenodd"/><path d="M898.2,264.2L904.4,267.6L901.5,272.9L895.3,269.5L898.2,264.2Z" fill="#f2f2f2" stroke="#888" stroke-width="0.6" fill-rule="evenodd"/><path d="M575.7,171.4L580.6,174.2L577.3,180.1L572.4,177.4L575.7,171.4Z" fill="#f2f2f2" stroke="#888" stroke-width="0.6" fill-rule="evenodd"/><path d="M824.0,210.3L829.0,213.1L826.5,217.7L821.4,214.9L824.0,210.3Z" fill="#e9e9e9" stroke="#888" stroke-width="0.6" fill-rule="evenodd"/><line x1="504.8" y1="210.1" x2="508.5" y2="214.8" stroke="#e4002b" stroke-width="0.9" opacity="0.55"/><line x1="504.8" y1="210.1" x2="499.9" y2="207.4" stroke="#e4002b" stroke-width="0.9" opacity="0.55"/><line x1="534.1" y1="222.9" x2="528.5" y2="204.3" stroke="#e4002b" stroke-width="0.9" opacity="0.55"/><line x1="534.1" y1="222.9" x2="531.2" y2="228.2" stroke="#e4002b" stroke-width="0.9" opacity="0.55"/><line x1="521.8" y1="216.2" x2="528.5" y2="204.3" stroke="#e4002b" stroke-width="0.9" opacity="0.55"/><line x1="521.8" y1="216.2" x2="518.9" y2="221.4" stroke="#e4002b" stroke-width="0.9" opacity="0.55"/><line x1="511.9" y1="210.7" x2="528.5" y2="204.3" stroke="#e4002b" stroke-width="0.9" opacity="0.55"/><line x1="511.9" y1="210.7" x2="508.5" y2="214.8" stroke="#e4002b" stroke-width="0.9" opacity="0.55"/><line x1="506.9" y1="202.7" x2="528.5" y2="204.3" stroke="#e4002b" stroke-width="0.9" opacity="0.55"/><line x1="506.9" y1="202.7" x2="500.9" y2="194.6" stroke="#e4002b" stroke-width="0.9" opacity="0.55"/><line x1="515.3" y1="187.4" x2="528.5" y2="204.3" stroke="#e4002b" stroke-width="0.9" opacity="0.55"/><line x1="515.3" y1="187.4" x2="511.6" y2="175.1" stroke="#e4002b" stroke-width="0.9" opacity="0.55"/><line x1="524.0" y1="171.8" x2="536.6" y2="178.8" stroke="#e4002b" stroke-width="0.9" opacity="0.55"/><line x1="524.0" y1="171.8" x2="511.6" y2="175.1" stroke="#e4002b" stroke-width="0.9" opacity="0.55"/><line x1="549.1" y1="185.8" x2="536.6" y2="178.8" stroke="#e4002b" stroke-width="0.9" opacity="0.55"/><line x1="549.1" y1="185.8" x2="551.8" y2="191.9" stroke="#e4002b" stroke-width="0.9" opacity="0.55"/><line x1="547.7" y1="199.4" x2="528.5" y2="204.3" stroke="#e4002b" stroke-width="0.9" opacity="0.55"/><line x1="547.7" y1="199.4" x2="551.8" y2="191.9" stroke="#e4002b" stroke-width="0.9" opacity="0.55"/><line x1="546.2" y1="213.0" x2="554.4" y2="217.6" stroke="#e4002b" stroke-width="0.9" opacity="0.55"/><line x1="546.2" y1="213.0" x2="528.5" y2="204.3" stroke="#e4002b" stroke-width="0.9" opacity="0.55"/><line x1="563.9" y1="208.4" x2="554.4" y2="217.6" stroke="#e4002b" stroke-width="0.9" opacity="0.55"/><line x1="563.9" y1="208.4" x2="564.7" y2="199.0" stroke="#e4002b" stroke-width="0.9" opacity="0.55"/><line x1="558.4" y1="190.9" x2="551.8" y2="191.9" stroke="#e4002b" stroke-width="0.9" opacity="0.55"/><line x1="558.4" y1="190.9" x2="564.7" y2="199.0" stroke="#e4002b" stroke-width="0.9" opacity="0.55"/><line x1="558.8" y1="229.2" x2="554.4" y2="217.6" stroke="#e4002b" stroke-width="0.9" opacity="0.55"/><line x1="558.8" y1="229.2" x2="562.8" y2="231.4" stroke="#e4002b" stroke-width="0.9" opacity="0.55"/><line x1="554.5" y1="183.6" x2="551.8" y2="191.9" stroke="#e4002b" stroke-width="0.9" opacity="0.55"/><line x1="554.5" y1="183.6" x2="562.6" y2="173.8" stroke="#e4002b" stroke-width="0.9" opacity="0.55"/><line x1="574.0" y1="174.4" x2="576.5" y2="175.8" stroke="#e4002b" stroke-width="0.9" opacity="0.55"/><line x1="574.0" y1="174.4" x2="562.6" y2="173.8" stroke="#e4002b" stroke-width="0.9" opacity="0.55"/><line x1="574.9" y1="178.7" x2="576.5" y2="175.8" stroke="#e4002b" stroke-width="0.9" opacity="0.55"/><line x1="574.9" y1="178.7" x2="572.3" y2="183.4" stroke="#e4002b" stroke-width="0.9" opacity="0.55"/><line x1="825.0" y1="220.4" x2="830.7" y2="220.6" stroke="#e4002b" stroke-width="0.9" opacity="0.55"/><line x1="825.0" y1="220.4" x2="822.5" y2="219.0" stroke="#e4002b" stroke-width="0.9" opacity="0.55"/><line x1="833.8" y1="225.6" x2="849.5" y2="222.5" stroke="#e4002b" stroke-width="0.9" opacity="0.55"/><line x1="833.8" y1="225.6" x2="830.7" y2="220.6" stroke="#e4002b" stroke-width="0.9" opacity="0.55"/><line x1="842.9" y1="209.1" x2="836.0" y2="205.1" stroke="#e4002b" stroke-width="0.9" opacity="0.55"/><line x1="842.9" y1="209.1" x2="849.5" y2="222.5" stroke="#e4002b" stroke-width="0.9" opacity="0.55"/><line x1="855.4" y1="237.3" x2="849.5" y2="222.5" stroke="#e4002b" stroke-width="0.9" opacity="0.55"/><line x1="855.4" y1="237.3" x2="873.9" y2="236.1" stroke="#e4002b" stroke-width="0.9" opacity="0.55"/><line x1="882.7" y1="252.4" x2="895.9" y2="248.3" stroke="#e4002b" stroke-width="0.9" opacity="0.55"/><line x1="882.7" y1="252.4" x2="873.9" y2="236.1" stroke="#e4002b" stroke-width="0.9" opacity="0.55"/><line x1="896.8" y1="266.9" x2="895.9" y2="248.3" stroke="#e4002b" stroke-width="0.9" opacity="0.55"/><line x1="896.8" y1="266.9" x2="899.9" y2="268.6" stroke="#e4002b" stroke-width="0.9" opacity="0.55"/><line x1="901.3" y1="265.9" x2="899.9" y2="268.6" stroke="#e4002b" stroke-width="0.9" opacity="0.55"/><line x1="901.3" y1="265.9" x2="909.0" y2="252.0" stroke="#e4002b" stroke-width="0.9" opacity="0.55"/><line x1="897.2" y1="302.9" x2="907.1" y2="305.8" stroke="#e4002b" stroke-width="0.9" opacity="0.55"/><line x1="897.2" y1="302.9" x2="892.5" y2="300.2" stroke="#e4002b" stroke-width="0.9" opacity="0.55"/><line x1="915.9" y1="310.7" x2="907.1" y2="305.8" stroke="#e4002b" stroke-width="0.9" opacity="0.55"/><line x1="915.9" y1="310.7" x2="918.9" y2="312.3" stroke="#e4002b" stroke-width="0.9" opacity="0.55"/><line x1="905.2" y1="309.8" x2="900.0" y2="334.9" stroke="#e4002b" stroke-width="0.9" opacity="0.55"/><line x1="905.2" y1="309.8" x2="907.1" y2="305.8" stroke="#e4002b" stroke-width="0.9" opacity="0.55"/><line x1="902.8" y1="308.5" x2="883.5" y2="325.7" stroke="#e4002b" stroke-width="0.9" opacity="0.55"/><line x1="902.8" y1="308.5" x2="907.1" y2="305.8" stroke="#e4002b" stroke-width="0.9" opacity="0.55"/><line x1="902.6" y1="311.8" x2="900.0" y2="334.9" stroke="#e4002b" stroke-width="0.9" opacity="0.55"/><line x1="902.6" y1="311.8" x2="883.5" y2="325.7" stroke="#e4002b" stroke-width="0.9" opacity="0.55"/><line x1="865.7" y1="343.9" x2="883.5" y2="325.7" stroke="#e4002b" stroke-width="0.9" opacity="0.55"/><line x1="865.7" y1="343.9" x2="875.0" y2="359.4" stroke="#e4002b" stroke-width="0.9" opacity="0.55"/><line x1="891.9" y1="358.4" x2="900.0" y2="334.9" stroke="#e4002b" stroke-width="0.9" opacity="0.55"/><line x1="891.9" y1="358.4" x2="875.0" y2="359.4" stroke="#e4002b" stroke-width="0.9" opacity="0.55"/><line x1="879.4" y1="372.2" x2="875.0" y2="359.4" stroke="#e4002b" stroke-width="0.9" opacity="0.55"/><line x1="879.4" y1="372.2" x2="876.0" y2="384.4" stroke="#e4002b" stroke-width="0.9" opacity="0.55"/><line x1="504.8" y1="210.1" x2="511.9" y2="210.7" stroke="#3a7bd5" stroke-width="0.5" opacity="0.55"/><line x1="534.1" y1="222.9" x2="521.8" y2="216.2" stroke="#3a7bd5" stroke-width="0.5" opacity="0.55"/><line x1="534.1" y1="222.9" x2="511.9" y2="210.7" stroke="#3a7bd5" stroke-width="0.5" opacity="0.55"/><line x1="534.1" y1="222.9" x2="506.9" y2="202.7" stroke="#3a7bd5" stroke-width="0.5" opacity="0.55"/><line x1="534.1" y1="222.9" x2="515.3" y2="187.4" stroke="#3a7bd5" stroke-width="0.5" opacity="0.55"/><line x1="534.1" y1="222.9" x2="547.7" y2="199.4" stroke="#3a7bd5" stroke-width="0.5" opacity="0.55"/><line x1="534.1" y1="222.9" x2="546.2" y2="213.0" stroke="#3a7bd5" stroke-width="0.5" opacity="0.55"/><line x1="521.8" y1="216.2" x2="511.9" y2="210.7" stroke="#3a7bd5" stroke-width="0.5" opacity="0.55"/><line x1="521.8" y1="216.2" x2="506.9" y2="202.7" stroke="#3a7bd5" stroke-width="0.5" opacity="0.55"/><line x1="521.8" y1="216.2" x2="515.3" y2="187.4" stroke="#3a7bd5" stroke-width="0.5" opacity="0.55"/><line x1="521.8" y1="216.2" x2="547.7" y2="199.4" stroke="#3a7bd5" stroke-width="0.5" opacity="0.55"/><line x1="521.8" y1="216.2" x2="546.2" y2="213.0" stroke="#3a7bd5" stroke-width="0.5" opacity="0.55"/><line x1="511.9" y1="210.7" x2="506.9" y2="202.7" stroke="#3a7bd5" stroke-width="0.5" opacity="0.55"/><line x1="511.9" y1="210.7" x2="515.3" y2="187.4" stroke="#3a7bd5" stroke-width="0.5" opacity="0.55"/><line x1="511.9" y1="210.7" x2="547.7" y2="199.4" stroke="#3a7bd5" stroke-width="0.5" opacity="0.55"/><line x1="511.9" y1="210.7" x2="546.2" y2="213.0" stroke="#3a7bd5" stroke-width="0.5" opacity="0.55"/><line x1="506.9" y1="202.7" x2="515.3" y2="187.4" stroke="#3a7bd5" stroke-width="0.5" opacity="0.55"/><line x1="506.9" y1="202.7" x2="547.7" y2="199.4" stroke="#3a7bd5" stroke-width="0.5" opacity="0.55"/><line x1="506.9" y1="202.7" x2="546.2" y2="213.0" stroke="#3a7bd5" stroke-width="0.5" opacity="0.55"/><line x1="515.3" y1="187.4" x2="547.7" y2="199.4" stroke="#3a7bd5" stroke-width="0.5" opacity="0.55"/><line x1="515.3" y1="187.4" x2="546.2" y2="213.0" stroke="#3a7bd5" stroke-width="0.5" opacity="0.55"/><line x1="547.7" y1="199.4" x2="546.2" y2="213.0" stroke="#3a7bd5" stroke-width="0.5" opacity="0.55"/><line x1="515.3" y1="187.4" x2="524.0" y2="171.8" stroke="#3a7bd5" stroke-width="0.5" opacity="0.55"/><line x1="524.0" y1="171.8" x2="549.1" y2="185.8" stroke="#3a7bd5" stroke-width="0.5" opacity="0.55"/><line x1="549.1" y1="185.8" x2="547.7" y2="199.4" stroke="#3a7bd5" stroke-width="0.5" opacity="0.55"/><line x1="549.1" y1="185.8" x2="558.4" y2="190.9" stroke="#3a7bd5" stroke-width="0.5" opacity="0.55"/><line x1="549.1" y1="185.8" x2="554.5" y2="183.6" stroke="#3a7bd5" stroke-width="0.5" opacity="0.55"/><line x1="547.7" y1="199.4" x2="558.4" y2="190.9" stroke="#3a7bd5" stroke-width="0.5" opacity="0.55"/><line x1="547.7" y1="199.4" x2="554.5" y2="183.6" stroke="#3a7bd5" stroke-width="0.5" opacity="0.55"/><line x1="558.4" y1="190.9" x2="554.5" y2="183.6" stroke="#3a7bd5" stroke-width="0.5" opacity="0.55"/><line x1="546.2" y1="213.0" x2="563.9" y2="208.4" stroke="#3a7bd5" stroke-width="0.5" opacity="0.55"/><line x1="546.2" y1="213.0" x2="558.8" y2="229.2" stroke="#3a7bd5" stroke-width="0.5" opacity="0.55"/><line x1="563.9" y1="208.4" x2="558.8" y2="229.2" stroke="#3a7bd5" stroke-width="0.5" opacity="0.55"/><line x1="563.9" y1="208.4" x2="558.4" y2="190.9" stroke="#3a7bd5" stroke-width="0.5" opacity="0.55"/><line x1="554.5" y1="183.6" x2="574.0" y2="174.4" stroke="#3a7bd5" stroke-width="0.5" opacity="0.55"/><line x1="574.0" y1="174.4" x2="574.9" y2="178.7" stroke="#3a7bd5" stroke-width="0.5" opacity="0.55"/><line x1="825.0" y1="220.4" x2="833.8" y2="225.6" stroke="#3a7bd5" stroke-width="0.5" opacity="0.55"/><line x1="833.8" y1="225.6" x2="842.9" y2="209.1" stroke="#3a7bd5" stroke-width="0.5" opacity="0.55"/><line x1="833.8" y1="225.6" x2="855.4" y2="237.3" stroke="#3a7bd5" stroke-width="0.5" opacity="0.55"/><line x1="842.9" y1="209.1" x2="855.4" y2="237.3" stroke="#3a7bd5" stroke-width="0.5" opacity="0.55"/><line x1="855.4" y1="237.3" x2="882.7" y2="252.4" stroke="#3a7bd5" stroke-width="0.5" opacity="0.55"/><line x1="882.7" y1="252.4" x2="896.8" y2="266.9" stroke="#3a7bd5" stroke-width="0.5" opacity="0.55"/><line x1="896.8" y1="266.9" x2="901.3" y2="265.9" stroke="#3a7bd5" stroke-width="0.5" opacity="0.55"/><line x1="897.2" y1="302.9" x2="915.9" y2="310.7" stroke="#3a7bd5" stroke-width="0.5" opacity="0.55"/><line x1="897.2" y1="302.9" x2="905.2" y2="309.8" stroke="#3a7bd5" stroke-width="0.5" opacity="0.55"/><line x1="897.2" y1="302.9" x2="902.8" y2="308.5" stroke="#3a7bd5" stroke-width="0.5" opacity="0.55"/><line x1="915.9" y1="310.7" x2="905.2" y2="309.8" stroke="#3a7bd5" stroke-width="0.5" opacity="0.55"/><line x1="915.9" y1="310.7" x2="902.8" y2="308.5" stroke="#3a7bd5" stroke-width="0.5" opacity="0.55"/><line x1="905.2" y1="309.8" x2="902.8" y2="308.5" stroke="#3a7bd5" stroke-width="0.5" opacity="0.55"/><line x1="905.2" y1="309.8" x2="902.6" y2="311.8" stroke="#3a7bd5" stroke-width="0.5" opacity="0.55"/><line x1="905.2" y1="309.8" x2="891.9" y2="358.4" stroke="#3a7bd5" stroke-width="0.5" opacity="0.55"/><line x1="902.6" y1="311.8" x2="891.9" y2="358.4" stroke="#3a7bd5" stroke-width="0.5" opacity="0.55"/><line x1="902.8" y1="308.5" x2="902.6" y2="311.8" stroke="#3a7bd5" stroke-width="0.5" opacity="0.55"/><line x1="902.8" y1="308.5" x2="865.7" y2="343.9" stroke="#3a7bd5" stroke-width="0.5" opacity="0.55"/><line x1="902.6" y1="311.8" x2="865.7" y2="343.9" stroke="#3a7bd5" stroke-width="0.5" opacity="0.55"/><line x1="865.7" y1="343.9" x2="891.9" y2="358.4" stroke="#3a7bd5" stroke-width="0.5" opacity="0.55"/><line x1="865.7" y1="343.9" x2="879.4" y2="372.2" stroke="#3a7bd5" stroke-width="0.5" opacity="0.55"/><line x1="891.9" y1="358.4" x2="879.4" y2="372.2" stroke="#3a7bd5" stroke-width="0.5" opacity="0.55"/><line x1="532.4" y1="186.3" x2="511.6" y2="175.1" stroke="#3a7bd5" stroke-width="0.5" opacity="0.55"/><rect x="559.8" y="228.4" width="6" height="6" fill="#7a4dc9"><title>elevator</title></rect><path d="M496.4,210.4 l3.5,-6 l3.5,6 Z" fill="#2c9c5a"><title>stairs</title></path><path d="M568.8,186.4 l3.5,-6 l3.5,6 Z" fill="#2c9c5a"><title>stairs</title></path><path d="M559.1,176.8 l3.5,-6 l3.5,6 Z" fill="#2c9c5a"><title>steps</title></path><rect x="819.5" y="216.0" width="6" height="6" fill="#7a4dc9"><title>elevator</title></rect><rect x="915.9" y="309.3" width="6" height="6" fill="#7a4dc9"><title>elevator</title></rect><path d="M905.5,255.0 l3.5,-6 l3.5,6 Z" fill="#2c9c5a"><title>stairs</title></path><path d="M889.0,303.2 l3.5,-6 l3.5,6 Z" fill="#2c9c5a"><title>stairs</title></path><path d="M872.5,387.4 l3.5,-6 l3.5,6 Z" fill="#2c9c5a"><title>stairs</title></path><circle cx="504.8" cy="210.1" r="1.3" fill="#e4002b" opacity="0.8"/><circle cx="534.1" cy="222.9" r="1.3" fill="#e4002b" opacity="0.8"/><circle cx="521.8" cy="216.2" r="1.3" fill="#e4002b" opacity="0.8"/><circle cx="511.9" cy="210.7" r="1.3" fill="#e4002b" opacity="0.8"/><circle cx="506.9" cy="202.7" r="1.3" fill="#e4002b" opacity="0.8"/><circle cx="515.3" cy="187.4" r="1.3" fill="#e4002b" opacity="0.8"/><circle cx="524.0" cy="171.8" r="1.3" fill="#e4002b" opacity="0.8"/><circle cx="549.1" cy="185.8" r="1.3" fill="#e4002b" opacity="0.8"/><circle cx="547.7" cy="199.4" r="1.3" fill="#e4002b" opacity="0.8"/><circle cx="546.2" cy="213.0" r="1.3" fill="#e4002b" opacity="0.8"/><circle cx="563.9" cy="208.4" r="1.3" fill="#e4002b" opacity="0.8"/><circle cx="558.4" cy="190.9" r="1.3" fill="#e4002b" opacity="0.8"/><circle cx="558.8" cy="229.2" r="1.3" fill="#e4002b" opacity="0.8"/><circle cx="554.5" cy="183.6" r="1.3" fill="#e4002b" opacity="0.8"/><circle cx="574.0" cy="174.4" r="1.3" fill="#e4002b" opacity="0.8"/><circle cx="574.9" cy="178.7" r="1.3" fill="#e4002b" opacity="0.8"/><circle cx="825.0" cy="220.4" r="1.3" fill="#e4002b" opacity="0.8"/><circle cx="833.8" cy="225.6" r="1.3" fill="#e4002b" opacity="0.8"/><circle cx="842.9" cy="209.1" r="1.3" fill="#e4002b" opacity="0.8"/><circle cx="855.4" cy="237.3" r="1.3" fill="#e4002b" opacity="0.8"/><circle cx="882.7" cy="252.4" r="1.3" fill="#e4002b" opacity="0.8"/><circle cx="896.8" cy="266.9" r="1.3" fill="#e4002b" opacity="0.8"/><circle cx="901.3" cy="265.9" r="1.3" fill="#e4002b" opacity="0.8"/><circle cx="897.2" cy="302.9" r="1.3" fill="#e4002b" opacity="0.8"/><circle cx="915.9" cy="310.7" r="1.3" fill="#e4002b" opacity="0.8"/><circle cx="905.2" cy="309.8" r="1.3" fill="#e4002b" opacity="0.8"/><circle cx="902.8" cy="308.5" r="1.3" fill="#e4002b" opacity="0.8"/><circle cx="902.6" cy="311.8" r="1.3" fill="#e4002b" opacity="0.8"/><circle cx="865.7" cy="343.9" r="1.3" fill="#e4002b" opacity="0.8"/><circle cx="891.9" cy="358.4" r="1.3" fill="#e4002b" opacity="0.8"/><circle cx="879.4" cy="372.2" r="1.3" fill="#e4002b" opacity="0.8"/><text x="873.9" y="236.1" font-size="5" text-anchor="middle" font-family="Helvetica,Arial,sans-serif" fill="#222">221</text><text x="528.5" y="204.3" font-size="5" text-anchor="middle" font-family="Helvetica,Arial,sans-serif" fill="#222">713</text><text x="883.5" y="325.7" font-size="5" text-anchor="middle" font-family="Helvetica,Arial,sans-serif" fill="#222">253</text><text x="849.5" y="222.5" font-size="5" text-anchor="middle" font-family="Helvetica,Arial,sans-serif" fill="#222">220</text><text x="900.0" y="334.9" font-size="5" text-anchor="middle" font-family="Helvetica,Arial,sans-serif" fill="#222">252</text><text x="896.0" y="248.3" font-size="5" text-anchor="middle" font-family="Helvetica,Arial,sans-serif" fill="#222">222</text><text x="875.0" y="359.4" font-size="5" text-anchor="middle" font-family="Helvetica,Arial,sans-serif" fill="#222">251</text><text x="511.6" y="175.2" font-size="5" text-anchor="middle" font-family="Helvetica,Arial,sans-serif" fill="#222">712</text><text x="554.4" y="217.6" font-size="5" text-anchor="middle" font-family="Helvetica,Arial,sans-serif" fill="#222">708</text><text x="835.9" y="205.1" font-size="5" text-anchor="middle" font-family="Helvetica,Arial,sans-serif" fill="#222">219</text><text x="564.7" y="199.0" font-size="5" text-anchor="middle" font-family="Helvetica,Arial,sans-serif" fill="#222">709</text><text x="500.9" y="194.6" font-size="5" text-anchor="middle" font-family="Helvetica,Arial,sans-serif" fill="#222">714</text><text x="536.6" y="178.8" font-size="5" text-anchor="middle" font-family="Helvetica,Arial,sans-serif" fill="#222">711</text><text x="518.9" y="221.4" font-size="5" text-anchor="middle" font-family="Helvetica,Arial,sans-serif" fill="#222">715</text><text x="551.8" y="191.9" font-size="5" text-anchor="middle" font-family="Helvetica,Arial,sans-serif" fill="#222">710</text><text x="531.1" y="228.1" font-size="5" text-anchor="middle" font-family="Helvetica,Arial,sans-serif" fill="#222">716</text></svg>