<svg xmlns="http://www.w3.org/2000/svg" width="985" height="1136" viewBox="0 0 985 1136"><rect width="100%" height="100%" fill="white"/><g font-family="Helvetica,Arial,sans-serif" font-size="11"><text x="12" y="18" font-size="14" font-weight="bold">The Met Fifth Avenue — Floor 5</text><text x="12" y="34">■ gallery <tspan fill="#888">(grey: non-gallery rooms)</tspan> · <tspan fill="#e4002b">red: doorway nodes/edges</tspan> · <tspan fill="#3a7bd5">blue: within-room walk edges</tspan> · <tspan fill="#2c9c5a">▲ stairs</tspan> · <tspan fill="#7a4dc9">■ elevator</tspan></text></g><path d="M200.3,722.6L225.3,736.5L240.6,745.0L252.5,723.4L264.2,729.9L272.9,734.8L267.0,745.5L261.0,756.3L252.3,751.5L218.2,812.9L230.3,819.7L225.8,827.8L221.2,836.1L216.7,844.1L214.2,848.7L199.3,840.4L187.4,861.9L199.9,868.9L188.6,889.3L155.0,870.7L178.3,828.8L150.1,813.1L200.3,722.6Z" fill="#e9e9e9" stroke="#888" stroke-width="0.6" fill-rule="evenodd"/><path d="M200.3,722.6L225.3,736.5L213.9,757.3L229.1,765.8L240.6,745.0L244.0,746.8L249.0,749.5L252.3,751.5L218.2,812.9L213.7,821.1L209.2,829.2L204.7,837.5L209.2,840.0L214.0,842.7L216.7,844.1L214.2,848.7L199.3,840.4L187.4,861.9L199.9,868.9L188.6,889.3L155.0,870.7L178.3,828.8L150.1,813.1L200.3,722.6Z" fill="#f7efe0" stroke="#888" stroke-width="0.6" fill-rule="evenodd" stroke-dasharray="3,2" opacity="0.55"/><path d="M225.3,736.5L240.6,745.0L229.1,765.8L213.9,757.3L225.3,736.5Z" fill="#e9e9e9" stroke="#888" stroke-width="0.6" fill-rule="evenodd" stroke-dasharray="3,2" opacity="0.55"/><path d="M252.5,723.4L264.2,729.9L262.6,732.9L259.9,737.8L258.3,740.7L256.6,743.6L253.9,748.6L252.3,751.5L249.0,749.5L244.0,746.8L240.6,745.0L252.5,723.4Z" fill="#f2f2f2" stroke="#888" stroke-width="0.6" fill-rule="evenodd"/><path d="M218.2,812.9L230.3,819.7L225.8,827.8L213.7,821.1L218.2,812.9Z" fill="#e9e9e9" stroke="#888" stroke-width="0.6" fill-rule="evenodd"/><path d="M209.2,829.2L221.2,836.1L216.7,844.1L214.0,842.7L209.2,840.0L204.7,837.5L209.2,829.2Z" fill="#f2f2f2" stroke="#888" stroke-width="0.6" fill-rule="evenodd"/><line x1="261.3" y1="735.3" x2="252.4" y2="737.4" stroke="#e4002b" stroke-width="0.9" opacity="0.55"/><line x1="261.3" y1="735.3" x2="265.6" y2="737.7" stroke="#e4002b" stroke-width="0.9" opacity="0.55"/><line x1="255.3" y1="746.1" x2="252.4" y2="737.4" stroke="#e4002b" stroke-width="0.9" opacity="0.55"/><line x1="255.3" y1="746.1" x2="259.6" y2="748.5" stroke="#e4002b" stroke-width="0.9" opacity="0.55"/><line x1="246.5" y1="748.2" x2="195.4" y2="800.5" stroke="#e4002b" stroke-width="0.9" opacity="0.55"/><line x1="246.5" y1="748.2" x2="252.4" y2="737.4" stroke="#e4002b" stroke-width="0.9" opacity="0.55"/><line x1="219.6" y1="746.9" x2="195.4" y2="800.5" stroke="#e4002b" stroke-width="0.9" opacity="0.55"/><line x1="219.6" y1="746.9" x2="227.2" y2="751.1" stroke="#e4002b" stroke-width="0.9" opacity="0.55"/><line x1="221.5" y1="761.5" x2="195.4" y2="800.5" stroke="#e4002b" stroke-width="0.9" opacity="0.55"/><line x1="221.5" y1="761.5" x2="227.2" y2="751.1" stroke="#e4002b" stroke-width="0.9" opacity="0.55"/><line x1="234.8" y1="755.4" x2="195.4" y2="800.5" stroke="#e4002b" stroke-width="0.9" opacity="0.55"/><line x1="234.8" y1="755.4" x2="227.2" y2="751.1" stroke="#e4002b" stroke-width="0.9" opacity="0.55"/><line x1="211.6" y1="841.3" x2="195.4" y2="800.5" stroke="#e4002b" stroke-width="0.9" opacity="0.55"/><line x1="211.6" y1="841.3" x2="212.9" y2="836.7" stroke="#e4002b" stroke-width="0.9" opacity="0.55"/><line x1="215.2" y1="832.7" x2="212.9" y2="836.7" stroke="#e4002b" stroke-width="0.9" opacity="0.55"/><line x1="215.2" y1="832.7" x2="217.5" y2="828.6" stroke="#e4002b" stroke-width="0.9" opacity="0.55"/><line x1="261.3" y1="735.3" x2="255.3" y2="746.1" stroke="#3a7bd5" stroke-width="0.5" opacity="0.55"/><line x1="261.3" y1="735.3" x2="246.5" y2="748.2" stroke="#3a7bd5" stroke-width="0.5" opacity="0.55"/><line x1="255.3" y1="746.1" x2="246.5" y2="748.2" stroke="#3a7bd5" stroke-width="0.5" opacity="0.55"/><line x1="246.5" y1="748.2" x2="219.6" y2="746.9" stroke="#3a7bd5" stroke-width="0.5" opacity="0.55"/><line x1="246.5" y1="748.2" x2="221.5" y2="761.5" stroke="#3a7bd5" stroke-width="0.5" opacity="0.55"/><line x1="246.5" y1="748.2" x2="234.8" y2="755.4" stroke="#3a7bd5" stroke-width="0.5" opacity="0.55"/><line x1="246.5" y1="748.2" x2="211.6" y2="841.3" stroke="#3a7bd5" stroke-width="0.5" opacity="0.55"/><line x1="219.6" y1="746.9" x2="221.5" y2="761.5" stroke="#3a7bd5" stroke-width="0.5" opacity="0.55"/><line x1="219.6" y1="746.9" x2="234.8" y2="755.4" stroke="#3a7bd5" stroke-width="0.5" opacity="0.55"/><line x1="219.6" y1="746.9" x2="211.6" y2="841.3" stroke="#3a7bd5" stroke-width="0.5" opacity="0.55"/><line x1="221.5" y1="761.5" x2="234.8" y2="755.4" stroke="#3a7bd5" stroke-width="0.5" opacity="0.55"/><line x1="221.5" y1="761.5" x2="211.6" y2="841.3" stroke="#3a7bd5" stroke-width="0.5" opacity="0.55"/><line x1="234.8" y1="755.4" x2="211.6" y2="841.3" stroke="#3a7bd5" stroke-width="0.5" opacity="0.55"/><line x1="219.6" y1="746.9" x2="221.5" y2="761.5" stroke="#3a7bd5" stroke-width="0.5" opacity="0.55"/><line x1="219.6" y1="746.9" x2="234.8" y2="755.4" stroke="#3a7bd5" stroke-width="0.5" opacity="0.55"/><line x1="221.5" y1="761.5" x2="234.8" y2="755.4" stroke="#3a7bd5" stroke-width="0.5" opacity="0.55"/><line x1="211.6" y1="841.3" x2="215.2" y2="832.7" stroke="#3a7bd5" stroke-width="0.5" opacity="0.55"/><rect x="262.6" y="734.7" width="6" height="6" fill="#7a4dc9"><title>elevator</title></rect><rect x="256.6" y="745.5" width="6" height="6" fill="#7a4dc9"><title>elevator</title></rect><path d="M214.0,831.6 l3.5,-6 l3.5,6 Z" fill="#2c9c5a"><title>stairs</title></path><circle cx="261.3" cy="735.3" r="1.3" fill="#e4002b" opacity="0.8"/><circle cx="255.3" cy="746.1" r="1.3" fill="#e4002b" opacity="0.8"/><circle cx="246.5" cy="748.2" r="1.3" fill="#e4002b" opacity="0.8"/><circle cx="219.6" cy="746.9" r="1.3" fill="#e4002b" opacity="0.8"/><circle cx="221.5" cy="761.5" r="1.3" fill="#e4002b" opacity="0.8"/><circle cx="234.8" cy="755.4" r="1.3" fill="#e4002b" opacity="0.8"/><circle cx="211.6" cy="841.3" r="1.3" fill="#e4002b" opacity="0.8"/><circle cx="215.2" cy="832.7" r="1.3" fill="#e4002b" opacity="0.8"/><text x="195.4" y="800.5" font-size="9" text-anchor="middle" font-family="Helvetica,Arial,sans-serif" fill="#222">926</text></svg>