<svg xmlns="http://www.w3.org/2000/svg" width="1200" height="630" viewBox="0 0 1200 630">
<rect width="1200" height="630" fill="#ffffff"/>

<!-- Real Fifth Ave floor-1 gallery polygons (galleries.geojson, rotated 29deg to the Manhattan grid) -->
<g transform="translate(0,-58)"><path d="M642.3,102.2L642.3,119.3L637.6,124.0L634.4,120.7L630.9,117.2L607.5,140.6L602.9,145.2L590.1,145.2L585.5,140.6L562.0,117.1L558.5,120.7L555.2,123.9L550.5,119.2L550.5,102.2L555.2,97.5L558.4,100.8L562.0,104.3L585.4,80.9L590.0,76.2L602.7,76.3L607.4,81.0L630.8,104.4L634.4,100.9L637.7,97.6L642.3,102.2ZM565.7,51.1L548.3,68.5L528.1,48.3L545.5,30.9L565.7,51.1ZM678.7,99.8L689.1,99.9L707.0,99.9L706.9,100.7L707.0,100.6L707.0,109.7L707.0,117.1L707.0,117.1L707.0,125.6L678.8,125.6L678.7,99.8ZM514.1,94.3L514.1,125.3L485.9,125.3L485.8,94.3L492.2,94.3L514.1,94.3ZM650.8,34.8L630.7,54.9L610.8,34.9L630.9,14.8L650.8,34.8ZM538.0,205.1L546.0,205.2L548.2,205.1L548.1,205.2L553.8,205.2L639.2,205.2L647.1,205.3L655.2,205.3L655.1,214.6L655.2,238.0L601.1,237.9L592.1,237.9L538.0,237.8L538.0,205.1ZM548.3,68.5L530.0,86.8L509.8,66.6L528.1,48.3L548.3,68.5ZM530.0,86.8L522.5,94.3L514.1,94.3L492.2,94.3L492.2,84.2L509.8,66.6L530.0,86.8ZM630.9,14.8L610.8,34.9L596.3,35.0L581.8,34.9L561.7,14.7L576.3,0.0L616.2,0.1L630.9,14.8ZM538.0,172.8L569.0,172.9L576.7,172.9L576.8,172.8L578.1,172.8L591.9,172.9L601.1,172.8L606.4,172.8L606.4,172.8L614.7,172.9L623.9,172.9L655.1,173.0L655.1,180.0L647.1,180.0L639.2,180.0L631.1,180.0L631.1,193.3L639.1,193.3L639.2,205.2L601.1,205.2L592.0,205.1L553.8,205.2L553.9,193.2L561.9,193.3L561.9,179.9L553.8,179.9L545.9,179.9L537.9,179.8L538.0,172.8ZM581.8,34.9L565.7,51.1L545.5,30.9L561.7,14.7L581.8,34.9ZM596.3,35.0L610.8,34.9L630.7,54.9L646.0,70.2L666.2,90.4L670.2,94.5L670.3,99.9L670.3,121.0L670.3,120.9L670.3,125.5L656.4,139.5L656.5,145.1L656.4,145.1L656.4,157.8L661.1,162.4L655.1,168.4L596.5,168.3L596.5,156.7L605.0,156.8L609.7,152.2L637.6,124.0L642.3,119.3L642.3,102.2L637.7,97.6L609.6,69.5L604.9,64.7L596.4,64.8L596.3,35.0ZM666.2,50.1L646.0,70.2L630.7,54.9L650.8,34.8L666.2,50.1ZM581.8,34.9L596.3,35.0L596.4,64.8L587.9,64.7L583.2,69.4L555.2,97.4L550.5,102.2L550.5,119.2L587.9,156.7L596.5,156.7L596.5,161.9L596.5,161.9L596.5,168.3L537.9,168.2L532.0,162.3L536.6,157.7L536.5,139.3L522.6,125.4L522.5,94.3L530.0,86.8L548.3,68.5L565.7,51.1L581.8,34.9ZM707.0,90.9L707.0,99.9L689.1,99.9L679.6,99.9L670.3,99.9L670.2,94.5L666.2,90.4L672.9,83.7L679.6,77.1L686.3,70.3L707.0,90.9ZM451.4,172.7L488.2,172.8L488.2,172.8L502.7,172.8L502.7,198.9L502.7,205.0L451.5,204.9L451.4,172.7ZM502.7,198.9L519.0,198.9L519.1,199.0L529.6,199.0L529.6,199.0L537.9,199.0L538.0,205.1L538.0,210.8L538.0,210.8L538.0,237.8L521.1,237.9L502.8,237.8L502.8,217.7L502.7,205.0L502.7,198.9ZM686.3,70.3L679.6,77.1L672.9,83.7L666.2,90.4L646.0,70.2L666.2,50.1L686.3,70.3ZM502.7,172.8L504.6,172.8L504.6,172.8L538.0,172.8L537.9,179.8L537.9,193.2L537.9,199.0L502.7,198.9L502.7,172.8ZM578.1,168.2L578.1,172.8L569.0,172.9L569.0,168.2L578.1,168.2ZM591.9,168.3L601.1,168.2L601.1,172.8L591.9,172.9L591.9,168.3ZM670.3,99.9L678.7,99.8L678.7,116.3L678.7,116.3L678.8,125.6L670.3,125.5L670.3,99.9ZM522.5,94.3L522.6,125.4L514.1,125.3L514.1,94.3L522.5,94.3ZM609.7,152.2L605.0,156.8L596.5,156.7L587.9,156.7L583.3,152.1L590.1,145.2L602.9,145.2L609.7,152.2ZM609.6,69.5L602.7,76.3L590.0,76.2L583.2,69.4L587.9,64.7L590.0,64.7L596.4,64.8L604.9,64.7L609.6,69.5ZM85.0,77.5L85.1,121.0L59.9,120.9L59.9,109.7L59.8,77.4L85.0,77.5ZM298.9,265.1L299.0,287.6L299.0,329.1L247.1,329.1L247.1,315.3L247.0,301.3L247.0,292.0L258.6,292.0L270.2,292.1L270.2,283.2L258.6,283.2L247.0,283.1L247.0,265.0L270.1,265.1L298.9,265.1ZM334.1,207.5L352.7,207.6L353.0,313.3L353.0,313.3L353.2,452.0L350.8,452.0L343.7,452.0L341.4,451.9L341.4,437.9L334.5,437.9L334.4,411.7L334.2,329.1L334.3,307.2L334.3,307.2L334.2,287.6L334.1,207.5ZM131.3,77.5L131.4,121.0L85.1,121.0L85.0,77.5L131.3,77.5ZM108.2,200.4L108.2,241.4L41.5,241.4L41.4,200.3L108.2,200.4ZM433.6,205.0L451.5,204.9L502.7,205.0L502.8,213.8L502.8,213.8L502.8,217.7L502.8,230.3L502.8,230.3L502.8,237.8L484.5,237.8L451.5,237.8L433.6,237.8L433.6,205.0ZM299.0,287.6L334.2,287.6L334.3,323.7L334.3,323.7L334.2,329.1L299.0,329.1L299.0,287.6ZM210.6,121.1L210.6,160.1L175.5,160.0L108.1,159.9L85.2,159.9L85.1,121.0L131.4,121.0L177.5,121.1L210.6,121.1ZM393.2,237.6L433.6,237.8L451.5,237.8L451.5,242.2L451.6,242.2L451.6,250.0L451.6,258.6L451.6,258.7L451.6,293.7L393.3,293.6L393.3,275.7L393.2,237.6ZM108.2,241.4L108.3,278.3L77.7,278.3L63.8,278.3L41.6,278.3L41.5,241.4L108.2,241.4ZM298.9,207.4L298.9,265.1L270.1,265.1L270.1,207.4L298.9,207.4ZM225.3,160.0L225.3,200.6L175.5,200.6L175.5,160.0L225.3,160.0ZM352.7,164.9L393.1,164.9L393.1,204.8L393.2,237.6L393.3,274.5L393.3,274.5L393.3,275.7L393.4,290.9L393.3,291.0L393.3,293.6L393.4,323.3L393.4,349.5L393.5,378.5L393.5,444.3L393.5,452.0L353.2,452.0L352.9,296.9L353.0,296.9L352.7,207.6L352.7,164.9ZM334.1,207.5L334.2,287.6L299.0,287.6L298.9,265.1L298.9,207.4L334.1,207.5ZM242.2,121.1L242.2,160.1L210.6,160.1L210.6,121.1L223.7,121.2L242.2,121.1ZM85.1,121.0L85.2,159.9L41.3,159.9L41.3,120.9L59.9,120.9L85.1,121.0ZM433.6,205.0L433.6,237.8L393.2,237.6L393.1,204.8L433.6,205.0ZM223.6,77.6L223.7,109.8L223.7,121.2L210.6,121.1L177.5,121.1L177.5,77.6L223.6,77.6ZM108.1,159.9L108.2,200.4L41.4,200.3L41.3,159.9L85.2,159.9L108.1,159.9ZM299.0,329.1L324.5,329.1L324.5,329.1L334.2,329.1L334.4,411.7L299.1,411.7L299.0,329.1ZM247.1,329.1L294.8,329.1L294.9,329.1L299.0,329.1L299.0,343.2L299.0,343.2L299.1,411.7L247.2,411.6L247.2,359.3L247.1,329.1ZM451.4,172.7L451.5,204.9L433.6,205.0L393.1,204.8L393.2,172.6L451.4,172.7ZM41.6,298.1L50.6,298.1L50.6,298.1L63.8,298.1L77.8,298.2L153.4,298.3L155.4,298.3L162.4,298.3L166.5,298.3L173.5,298.3L175.6,298.3L197.1,298.3L199.6,298.3L205.0,298.3L229.9,298.4L238.5,298.4L242.5,298.4L242.4,301.3L242.5,318.2L216.9,318.2L200.4,318.1L196.8,318.2L196.7,311.2L137.1,311.1L137.1,318.1L134.1,318.1L121.8,318.1L88.2,318.0L88.2,313.8L84.1,313.8L84.0,318.0L62.1,318.0L51.7,317.9L44.8,317.9L41.5,317.9L41.6,311.2L41.5,311.2L41.6,298.1ZM225.3,200.6L225.4,241.6L175.6,241.6L175.5,200.6L225.3,200.6ZM225.4,241.6L225.4,278.5L197.0,278.4L175.6,278.5L175.6,241.6L225.4,241.6ZM177.5,77.6L177.5,121.1L131.4,121.0L131.3,77.5L177.5,77.6ZM175.6,241.6L175.6,278.5L108.3,278.3L108.2,241.4L175.6,241.6ZM352.7,164.9L352.7,207.6L334.1,207.5L298.9,207.4L270.1,207.4L247.0,207.4L246.8,164.7L352.7,164.9ZM242.2,110.0L242.2,121.1L223.7,121.2L223.7,109.8L233.1,110.0L242.2,110.0ZM59.9,109.7L59.9,120.9L41.3,120.9L41.3,109.7L50.5,109.7L59.9,109.7ZM197.0,278.4L197.0,283.1L197.1,298.3L175.6,298.3L175.6,283.1L175.6,278.5L197.0,278.4ZM77.7,278.3L77.8,282.9L77.8,298.2L63.8,298.1L63.8,282.9L63.8,278.3L77.7,278.3ZM247.0,301.3L247.1,315.3L242.5,315.3L242.4,301.3L247.0,301.3ZM107.9,376.0L147.2,376.1L147.0,367.5L175.9,367.6L176.0,393.1L176.0,395.0L176.0,395.0L176.0,397.9L176.1,411.4L176.0,411.4L176.1,415.4L164.3,415.3L129.4,415.3L108.0,415.3L107.9,401.4L107.9,401.5L107.9,391.4L107.9,376.0ZM68.3,322.6L107.6,322.6L107.6,331.5L107.7,345.7L107.8,358.3L107.9,376.0L107.9,391.4L98.7,391.3L77.0,391.3L68.7,391.3L68.7,389.6L68.6,378.2L68.5,359.8L68.4,359.7L68.4,357.4L68.4,345.0L68.3,322.6ZM68.9,438.4L97.3,438.6L97.3,438.6L108.1,438.7L110.1,438.7L112.2,438.7L112.2,438.6L139.7,438.7L142.1,438.7L142.1,442.9L142.3,458.6L142.2,462.5L132.4,462.4L107.3,462.4L107.5,485.6L89.5,485.5L89.6,508.8L69.2,508.8L69.2,499.6L69.0,473.7L69.0,465.1L68.9,438.4ZM108.0,415.3L115.6,415.2L115.6,415.3L129.4,415.3L139.3,415.3L139.3,415.3L164.3,415.3L169.0,415.3L168.9,415.3L176.1,415.4L176.3,438.7L142.1,438.7L139.7,438.7L128.5,438.6L128.5,438.6L126.9,438.6L126.8,438.7L110.1,438.7L108.1,438.7L108.1,431.3L108.1,431.2L108.0,415.3ZM175.7,322.7L175.7,331.3L175.9,367.6L147.0,367.5L146.9,331.2L146.8,322.7L175.7,322.7ZM146.8,322.7L146.9,331.2L147.0,367.5L147.2,376.1L107.9,376.0L107.8,358.3L107.7,345.7L107.6,331.5L107.6,322.6L121.8,322.7L134.2,322.7L146.8,322.7ZM68.7,391.3L77.0,391.3L86.0,391.3L85.9,391.2L98.7,391.3L102.3,391.3L102.3,391.4L107.9,391.4L108.0,415.3L108.1,432.6L108.2,432.6L108.1,438.7L68.9,438.4L68.8,429.5L68.7,399.9L68.7,391.3ZM0.0,322.5L44.8,322.5L47.8,322.6L47.8,322.5L62.1,322.6L68.3,322.6L68.4,345.0L68.4,357.4L68.6,378.2L68.7,389.6L68.7,391.3L68.7,399.9L68.8,429.5L68.9,438.4L46.0,438.2L19.6,438.0L0.2,437.9L0.0,322.5ZM175.7,322.7L200.4,322.7L217.0,322.8L242.5,322.9L242.6,374.5L242.6,374.5L242.6,415.7L217.2,415.5L200.9,415.5L176.1,415.4L176.0,397.9L176.0,393.1L175.9,367.6L175.7,331.3L175.7,322.7ZM216.9,318.2L217.0,322.8L200.4,322.7L200.4,318.1L216.9,318.2ZM134.1,318.1L134.2,322.7L121.8,322.7L121.8,318.1L134.1,318.1ZM44.8,317.9L45.3,317.9L45.3,317.9L51.7,317.9L61.6,317.9L61.7,318.0L62.1,318.0L62.1,322.6L44.8,322.5L44.8,317.9ZM196.7,311.2L196.8,318.2L137.1,318.1L137.1,311.1L196.7,311.2ZM0.2,437.9L19.6,438.0L46.0,438.2L68.9,438.4L68.9,454.3L69.0,454.3L69.0,465.1L69.0,470.7L69.0,470.7L69.0,473.7L69.2,499.6L69.2,508.8L69.2,521.4L69.3,529.0L69.4,563.2L64.6,563.1L54.4,563.1L0.3,563.1L0.3,508.8L0.3,508.8L0.2,437.9ZM948.8,109.7L962.3,109.8L976.7,109.8L976.6,109.7L989.1,109.8L993.0,109.8L993.1,109.8L1002.6,109.8L1002.7,146.3L1002.7,169.6L989.2,169.6L970.6,169.7L962.4,169.6L948.9,169.6L948.8,109.7ZM1002.6,109.8L1049.0,109.8L1049.1,132.7L1049.1,169.6L1049.2,197.4L1034.8,197.3L1002.7,197.3L1002.7,169.6L1002.7,156.7L1002.7,156.6L1002.7,146.3L1002.6,127.1L1002.7,127.1L1002.6,109.8ZM1066.5,225.6L1085.3,225.7L1085.3,241.0L1091.4,240.9L1091.3,262.9L1085.3,262.9L1085.4,274.5L1085.3,281.6L1085.3,283.2L1079.0,283.2L1079.1,291.9L1072.9,292.0L1072.8,283.1L1066.5,283.2L1066.5,281.5L1066.5,271.9L1066.5,271.8L1066.6,263.8L1044.9,263.9L1044.8,255.8L1051.9,255.8L1051.8,246.7L1044.8,246.7L1044.8,238.6L1048.1,238.6L1048.1,238.6L1060.5,238.6L1064.5,238.6L1064.5,238.6L1066.5,238.6L1066.5,225.6ZM1149.5,110.0L1149.4,132.8L1117.1,132.9L1117.1,110.0L1122.3,110.0L1149.5,110.0ZM1071.6,332.3L1100.0,332.3L1100.0,332.3L1179.5,332.5L1179.4,343.9L1179.5,365.2L1179.5,365.8L1179.5,365.8L1179.6,378.0L1179.6,382.2L1179.6,382.2L1179.6,438.3L1179.6,453.0L1183.3,452.9L1183.3,453.0L1187.3,453.0L1187.3,484.2L1187.4,547.0L1065.3,546.8L1065.3,452.8L1071.9,452.8L1071.8,438.1L1071.7,364.9L1071.7,343.7L1071.6,332.3ZM1149.6,241.0L1149.6,258.6L1127.3,258.6L1091.4,258.5L1091.4,240.9L1113.9,240.9L1121.0,241.0L1149.6,241.0ZM1149.5,165.2L1149.6,197.6L1149.6,203.1L1149.7,238.8L1149.6,241.0L1121.0,241.0L1113.9,240.9L1091.4,240.9L1085.3,241.0L1085.3,225.7L1085.2,169.7L1085.2,165.1L1113.8,165.2L1120.8,165.2L1149.5,165.2ZM1013.0,203.7L1028.8,203.7L1028.8,203.7L1040.5,203.8L1040.5,238.6L1013.0,238.5L1013.0,203.7ZM1092.8,75.6L1092.8,101.4L1081.8,101.4L1081.6,101.3L1081.5,101.3L1081.5,101.3L1081.4,101.3L1081.1,101.2L1081.0,101.1L1080.9,101.2L1080.9,101.1L1080.7,101.0L1080.6,100.9L1080.5,100.9L1080.0,100.0L1080.1,99.9L1080.0,99.8L1080.0,99.6L1080.0,97.8L1069.1,97.8L1069.2,75.5L1092.8,75.6ZM968.2,75.4L973.9,75.3L974.0,75.4L1058.1,75.6L1058.2,97.8L1058.3,109.9L1049.0,109.8L1002.6,109.8L988.7,109.8L968.4,109.8L948.8,109.7L948.8,97.7L968.3,97.7L968.3,94.7L968.3,94.6L968.2,75.4ZM1149.6,258.6L1149.6,292.0L1127.4,292.0L1127.3,258.6L1149.6,258.6ZM1149.4,132.8L1149.5,165.2L1120.8,165.2L1113.8,165.2L1085.2,165.1L1085.2,169.7L1074.5,169.7L1074.4,132.7L1104.0,132.8L1117.1,132.9L1149.4,132.8ZM1074.4,132.7L1074.5,169.7L1049.1,169.6L1049.1,132.7L1074.4,132.7ZM1074.3,109.9L1074.4,132.7L1049.1,132.7L1049.0,109.8L1058.3,109.9L1074.3,109.9ZM1130.0,75.7L1130.1,97.9L1122.3,97.9L1099.2,97.9L1099.2,75.6L1130.0,75.7ZM1103.9,109.9L1104.0,132.8L1074.4,132.7L1074.3,109.9L1103.9,109.9ZM1127.3,258.6L1127.4,281.6L1110.2,281.6L1091.4,281.5L1091.4,274.5L1091.3,262.9L1091.4,258.5L1127.3,258.6ZM1117.1,110.0L1117.1,132.9L1104.0,132.8L1103.9,109.9L1117.1,110.0ZM1122.3,97.9L1122.3,110.0L1117.1,110.0L1103.9,109.9L1074.3,109.9L1058.3,109.9L1058.2,97.8L1080.0,97.8L1080.0,99.6L1080.0,99.8L1080.1,99.9L1080.0,100.0L1080.5,100.9L1080.6,100.9L1080.7,101.0L1080.9,101.1L1080.9,101.2L1081.0,101.1L1081.1,101.2L1081.4,101.3L1081.5,101.3L1081.5,101.3L1081.6,101.3L1081.7,101.4L1081.8,101.4L1099.2,101.4L1099.2,97.9L1122.3,97.9ZM1085.2,169.7L1085.3,225.7L1066.5,225.6L1066.4,197.5L1049.2,197.4L1049.1,169.6L1074.5,169.7L1085.2,169.7ZM1066.5,291.9L1072.9,292.0L1077.7,291.9L1077.7,291.9L1079.1,291.9L1085.3,291.9L1085.3,293.6L1085.4,299.4L1085.4,303.6L1066.6,303.6L1066.6,295.9L1066.5,291.9ZM970.8,298.9L973.7,299.0L982.8,299.0L985.7,299.0L988.0,299.0L988.0,301.2L988.1,308.3L988.0,310.5L999.5,310.5L999.4,308.3L999.5,301.2L999.4,299.0L1013.1,299.0L1013.1,308.3L1040.6,308.3L1040.7,303.5L1047.6,303.5L1050.5,303.6L1053.3,303.6L1056.2,303.5L1066.6,303.6L1071.4,303.6L1080.5,303.6L1084.1,303.6L1084.1,303.5L1085.4,303.6L1091.4,303.6L1091.5,310.0L1091.5,320.3L1063.5,320.2L1054.3,320.1L970.9,320.1L970.8,303.4L970.8,298.9ZM1179.5,332.5L1199.4,332.5L1199.5,371.2L1199.5,371.2L1199.6,492.1L1199.8,568.7L1187.5,568.7L1187.4,547.0L1187.3,489.7L1187.3,489.7L1187.3,484.2L1187.2,460.1L1187.3,460.1L1187.3,453.0L1179.6,453.0L1179.6,446.3L1179.6,446.3L1179.6,438.3L1186.2,438.2L1186.1,365.2L1179.5,365.2L1179.4,343.9L1179.5,332.5ZM777.1,582.8L788.0,582.8L788.1,582.8L816.2,582.9L816.3,583.6L816.2,583.6L816.3,613.2L777.1,613.2L777.1,589.9L777.1,582.8ZM985.7,269.8L985.7,299.0L970.8,298.9L970.8,269.8L985.7,269.8ZM823.5,368.5L823.6,420.9L801.0,420.8L801.0,406.5L801.0,399.6L800.9,391.1L800.9,389.8L801.0,382.7L801.0,368.4L823.5,368.5ZM722.4,613.2L733.3,613.2L733.3,613.1L748.7,613.1L748.7,613.2L752.8,613.2L763.0,613.2L762.9,613.2L777.1,613.2L777.1,623.4L798.9,623.4L798.9,634.0L787.5,634.1L787.5,645.1L777.1,645.1L777.2,666.7L722.4,666.6L722.4,652.0L722.4,644.9L722.4,643.5L722.4,636.5L722.3,628.1L722.4,613.2ZM796.1,297.0L796.2,304.5L796.3,313.6L796.3,320.9L790.3,321.0L783.3,320.9L745.4,320.9L745.2,296.9L783.2,296.9L790.3,297.0L796.1,297.0ZM757.8,412.3L757.9,434.9L757.9,444.7L729.7,444.7L729.5,433.9L729.6,423.2L729.6,412.3L757.8,412.3ZM1040.6,299.1L1040.7,303.5L1040.6,308.3L1013.1,308.3L1013.1,299.0L1040.6,299.1ZM1040.6,263.8L1040.6,273.9L1013.1,273.9L1013.1,269.8L1013.1,263.9L1040.6,263.8ZM994.9,339.3L995.0,368.7L985.5,368.7L964.0,368.7L964.0,339.2L994.9,339.3ZM970.7,203.7L970.7,246.8L970.7,255.8L970.8,298.9L964.6,298.9L964.6,290.2L952.6,290.2L952.6,298.9L949.0,299.0L923.7,298.9L831.4,298.8L831.2,203.6L923.5,203.6L949.0,203.6L970.7,203.7ZM796.1,238.2L796.1,292.4L790.3,292.4L783.3,292.4L749.9,292.3L749.9,285.9L750.0,271.8L749.8,249.3L749.8,238.1L796.1,238.2ZM749.8,249.3L750.0,271.8L736.4,271.7L712.6,271.7L712.6,285.8L657.6,285.6L657.6,274.8L657.6,267.4L657.5,256.1L684.4,256.3L684.4,238.0L712.1,238.1L712.3,249.2L749.8,249.3ZM1002.7,169.6L1002.7,197.3L981.6,197.3L974.6,197.3L970.7,197.3L970.6,169.7L1002.7,169.6ZM780.4,351.8L780.4,379.0L750.0,379.0L750.0,351.8L780.4,351.8ZM796.0,173.1L796.1,205.4L734.2,205.4L734.2,173.0L796.0,173.1ZM868.1,339.1L868.1,368.6L823.5,368.5L801.0,368.4L800.9,339.0L868.1,339.1ZM702.4,173.1L702.5,205.3L690.3,205.2L690.4,173.0L702.4,173.1ZM690.4,173.0L690.3,205.2L690.4,214.7L655.1,214.6L655.2,205.3L655.1,193.3L655.1,180.0L655.1,173.0L690.4,173.0ZM919.2,339.2L919.3,368.6L868.1,368.6L868.1,339.1L884.6,339.2L893.7,339.2L919.2,339.2ZM868.3,421.0L868.3,451.3L801.0,451.3L801.0,420.8L823.6,420.9L868.3,421.0ZM831.2,203.6L831.4,298.8L810.7,298.7L810.6,291.9L821.5,292.1L821.5,275.0L810.6,274.9L810.6,227.2L821.4,227.3L821.4,210.2L810.5,210.2L810.5,203.5L831.2,203.6ZM540.3,242.5L543.2,242.4L543.2,242.5L571.6,242.5L592.1,242.6L601.1,242.6L621.6,242.7L652.9,242.7L653.0,267.4L653.0,274.8L653.0,294.9L653.1,322.6L653.0,378.9L602.4,378.8L602.4,378.7L562.4,378.7L540.5,378.7L540.4,322.4L540.4,315.5L540.3,301.9L540.4,294.8L540.3,266.8L540.3,266.7L540.3,242.5ZM690.4,214.7L690.4,238.0L684.4,238.0L684.4,256.3L657.5,256.1L657.5,238.1L655.1,238.0L655.1,214.6L690.4,214.7ZM734.2,173.0L734.2,205.4L702.5,205.3L702.4,173.1L734.2,173.0ZM1013.0,203.7L1013.0,232.1L985.5,232.1L985.6,203.7L1013.0,203.7ZM690.6,424.5L690.7,444.7L657.8,444.6L657.7,424.4L690.6,424.5ZM796.3,379.0L796.3,382.8L796.3,389.7L796.4,399.6L796.3,406.6L796.3,412.4L780.5,412.4L757.8,412.3L729.6,412.3L716.1,412.3L690.6,412.3L690.6,378.9L750.0,379.0L780.4,379.0L796.3,379.0ZM729.6,423.2L729.5,433.9L716.1,433.9L716.1,444.7L690.7,444.7L690.6,424.5L690.6,412.3L716.1,412.3L716.1,423.2L729.6,423.2ZM521.1,237.9L524.3,237.9L524.3,237.8L535.6,237.8L535.8,287.8L521.2,287.8L521.2,265.2L521.1,237.9ZM964.0,368.7L964.1,421.1L919.4,421.1L868.3,421.0L823.6,420.9L823.5,368.5L868.1,368.6L919.3,368.6L964.0,368.7ZM1013.1,269.8L1013.1,299.0L985.7,299.0L985.7,269.8L1013.1,269.8ZM964.0,339.2L964.0,368.7L919.3,368.6L919.2,339.2L964.0,339.2ZM722.4,582.8L731.8,582.7L731.8,582.8L777.1,582.8L777.1,588.8L777.1,588.8L777.1,589.9L777.1,605.3L777.1,605.3L777.1,613.2L752.8,613.2L732.3,613.2L732.3,613.1L722.4,613.2L722.4,595.2L722.3,595.1L722.4,582.8ZM1013.0,232.1L1013.0,238.5L1013.1,263.9L1013.1,269.8L985.7,269.8L970.8,269.8L970.7,255.8L970.7,246.8L970.7,203.7L974.6,203.8L981.6,203.7L985.6,203.7L985.5,214.9L978.1,214.9L978.1,225.1L985.6,225.1L985.5,232.1L1013.0,232.1ZM796.1,205.4L796.1,238.2L749.8,238.1L712.1,238.1L690.4,238.0L690.4,214.7L690.3,205.2L702.5,205.3L734.2,205.4L796.1,205.4ZM796.3,351.9L796.3,379.0L780.4,379.0L780.4,351.8L796.3,351.9ZM745.3,290.5L745.2,296.9L745.4,320.9L745.4,327.3L687.0,327.3L686.9,322.6L653.1,322.6L653.0,294.9L686.9,295.1L686.8,290.4L745.3,290.5ZM562.4,378.7L618.7,378.8L618.8,378.8L653.0,378.9L653.1,392.1L653.1,399.1L653.1,412.4L631.2,412.4L631.3,435.5L633.8,435.5L633.8,435.4L642.3,435.4L650.1,435.3L650.2,435.4L653.2,435.4L653.2,444.6L631.2,444.5L611.5,444.5L582.2,444.5L562.6,444.4L540.6,444.5L540.5,435.4L551.5,435.3L562.5,435.4L562.4,412.3L562.4,403.9L562.4,387.1L562.4,378.7ZM994.9,378.9L995.0,411.0L985.6,410.9L985.6,421.2L985.7,434.4L985.7,444.6L995.1,444.6L995.0,451.6L985.7,451.6L985.7,462.2L976.2,462.1L976.3,471.7L964.1,471.6L964.1,421.1L964.0,368.7L985.5,368.7L985.6,379.0L994.9,378.9ZM780.5,412.4L780.5,435.0L757.9,434.9L757.8,412.3L780.5,412.4ZM1040.5,238.6L1040.6,246.7L1040.6,255.7L1040.6,263.8L1013.1,263.9L1013.0,238.5L1040.5,238.6ZM1040.6,273.9L1040.6,299.1L1013.1,299.0L1013.1,273.9L1040.6,273.9ZM690.6,378.9L690.6,412.3L690.6,424.5L657.7,424.4L657.7,399.1L657.7,392.1L657.8,378.9L690.6,378.9ZM919.4,421.1L919.4,451.4L868.3,451.3L868.3,421.0L919.4,421.1ZM964.1,471.6L985.7,471.6L985.7,473.2L985.7,473.2L985.8,487.5L985.7,489.7L985.7,489.7L985.8,495.4L964.1,495.4L964.1,471.6ZM964.1,421.1L964.1,451.5L919.4,451.4L919.4,421.1L964.1,421.1ZM796.2,325.5L796.3,351.9L780.4,351.8L750.0,351.8L750.0,325.5L783.4,325.6L790.3,325.6L796.2,325.5ZM839.5,456.0L888.5,456.1L906.7,517.0L906.7,517.0L909.7,527.2L909.8,572.3L909.5,572.5L909.0,572.6L908.7,572.7L907.4,573.0L906.8,573.2L906.2,573.3L905.1,573.6L904.5,573.7L903.9,573.9L901.8,574.3L897.9,575.2L897.0,575.3L896.1,575.5L894.2,575.8L893.3,576.0L891.4,576.3L890.4,576.5L889.3,576.6L888.3,576.7L887.3,576.9L885.1,577.1L884.0,577.4L882.9,577.5L881.7,577.6L880.6,577.7L879.3,577.7L878.1,577.9L877.0,578.0L873.3,578.2L872.0,578.4L871.1,578.3L870.7,578.3L868.2,578.4L866.8,578.4L864.1,578.5L862.8,578.4L861.6,578.5L857.7,578.3L857.2,578.3L856.3,578.3L855.0,578.2L846.6,577.5L845.5,577.3L844.5,577.3L841.1,576.8L840.0,576.8L839.1,576.5L837.9,576.4L837.0,576.3L836.0,576.1L835.0,575.9L834.1,575.7L833.1,575.6L828.8,574.7L828.1,574.6L827.3,574.4L826.6,574.3L825.2,573.9L824.5,573.8L823.9,573.6L823.2,573.5L822.7,573.3L822.1,573.2L820.1,572.6L819.7,572.6L819.3,572.4L818.6,572.3L818.5,527.1L839.5,456.0ZM635.8,449.2L641.4,449.2L641.4,449.2L642.4,449.2L657.8,449.1L657.8,449.2L700.0,449.2L734.3,449.3L734.3,478.0L772.9,478.0L772.9,506.6L773.0,561.2L717.7,561.2L699.9,561.1L695.7,561.2L695.8,578.1L676.3,578.1L676.3,582.7L700.4,582.8L700.4,607.2L689.9,607.2L682.9,607.2L649.0,607.1L641.9,607.1L631.3,607.1L631.3,598.1L631.3,582.7L655.3,582.6L655.3,578.0L636.0,578.0L635.8,477.0L635.8,464.2L635.8,457.2L635.8,449.2ZM948.9,169.6L949.0,203.6L923.5,203.6L831.2,203.6L810.5,203.5L810.5,169.4L948.9,169.6ZM970.8,298.9L970.9,320.1L970.9,330.3L893.6,330.1L884.5,330.1L810.7,330.0L810.7,313.5L810.6,304.4L810.7,298.7L831.4,298.8L923.7,298.9L949.0,299.0L952.6,298.9L964.6,298.9L968.1,299.0L970.8,298.9ZM657.6,267.4L657.6,274.8L653.0,274.8L653.0,267.4L657.6,267.4ZM1066.5,281.5L1066.5,283.2L1066.5,291.9L1066.6,295.9L1066.6,303.6L1056.2,303.5L1056.2,288.9L1044.8,288.9L1044.8,281.6L1066.5,281.5ZM893.6,330.1L893.7,339.2L884.5,339.1L884.5,330.1L893.6,330.1ZM623.9,168.3L623.9,172.9L614.7,172.9L614.7,168.2L623.9,168.3ZM790.3,292.4L790.3,297.0L783.2,296.9L783.3,292.4L790.3,292.4ZM800.9,391.1L801.0,398.2L796.4,398.1L796.3,391.1L800.9,391.1ZM657.7,392.1L657.7,399.1L653.1,399.1L653.1,392.1L657.7,392.1ZM970.6,169.7L970.7,203.7L949.0,203.6L948.9,169.6L970.6,169.7ZM801.0,382.7L800.9,389.8L796.3,389.7L796.3,382.8L801.0,382.7ZM601.1,237.9L601.1,242.6L592.1,242.6L592.1,237.9L601.1,237.9ZM1063.5,320.2L1063.5,332.3L1054.4,332.3L1054.3,320.1L1063.5,320.2ZM801.0,399.6L801.0,406.5L796.3,406.6L796.4,399.6L801.0,399.6ZM810.6,304.4L810.7,313.5L796.3,313.6L796.2,304.5L810.6,304.4ZM790.3,321.0L790.3,325.6L783.4,325.6L783.3,320.9L790.3,321.0ZM654.7,151.8L654.8,163.9L642.7,163.9L642.7,151.8L654.7,151.8ZM1050.3,332.3L1054.4,332.3L1063.5,332.3L1071.6,332.3L1071.7,343.7L1071.7,364.9L1065.1,365.0L1065.2,429.2L1065.2,429.2L1065.2,438.2L1071.8,438.1L1071.9,441.9L1071.8,441.9L1071.9,452.8L1065.3,452.8L1065.3,546.8L1065.4,568.6L1063.8,568.5L1050.7,568.6L1050.6,547.7L1050.6,505.0L1050.5,437.3L1050.5,437.3L1050.3,332.3ZM44.6,581.8L54.4,581.8L64.7,581.9L74.7,581.8L89.3,581.9L191.7,582.0L191.6,581.9L202.8,582.0L202.9,621.5L203.0,686.3L203.0,689.8L203.1,699.4L44.8,699.2L44.6,581.8ZM521.2,265.2L521.2,287.8L505.2,287.8L498.1,287.7L498.0,265.2L521.2,265.2ZM242.8,621.6L297.9,621.6L362.1,621.6L416.2,621.7L416.2,623.8L416.2,655.4L416.2,658.0L362.1,657.9L298.0,657.8L242.9,657.7L242.9,644.9L242.9,645.0L242.8,621.6ZM535.9,378.7L535.9,392.0L535.9,398.9L535.9,412.1L521.4,412.2L521.3,378.7L535.9,378.7ZM535.9,329.5L535.8,351.5L498.1,351.4L498.1,329.4L505.3,329.4L535.9,329.5ZM416.2,582.4L416.2,621.7L362.1,621.6L362.1,582.2L416.2,582.4ZM451.6,293.7L451.6,323.4L393.4,323.3L393.3,293.6L451.6,293.7ZM466.7,378.6L466.8,412.1L466.7,444.3L393.5,444.3L393.5,378.5L443.8,378.5L466.7,378.6ZM416.2,658.0L416.3,697.3L362.2,697.2L362.1,657.9L416.2,658.0ZM521.3,378.7L521.4,412.2L505.4,412.1L505.3,378.7L521.3,378.7ZM443.9,349.6L443.8,378.5L393.5,378.5L393.4,349.5L443.9,349.6ZM558.0,481.3L558.1,549.7L558.1,556.6L558.2,559.9L483.2,559.9L483.2,552.9L495.7,553.0L495.5,546.2L505.6,546.2L505.5,516.7L505.5,509.7L505.4,481.2L558.0,481.3ZM535.8,287.8L535.7,294.8L535.8,301.9L535.8,315.5L535.8,322.4L535.9,329.5L505.3,329.4L505.2,323.4L468.6,323.4L468.5,293.7L505.2,293.7L505.2,287.8L535.8,287.8ZM471.7,582.4L471.7,623.9L416.2,623.8L416.2,621.7L416.2,582.4L471.7,582.4ZM631.2,444.5L631.2,457.2L631.2,464.2L631.3,578.0L625.0,577.9L618.0,578.0L611.7,578.0L611.6,564.6L611.6,524.0L611.6,487.1L611.5,444.5L631.2,444.5ZM471.7,655.6L471.9,697.4L416.3,697.3L416.2,658.0L416.2,655.4L471.7,655.6ZM362.1,657.9L362.2,697.2L297.9,697.2L298.0,657.8L362.1,657.9ZM242.9,657.7L250.0,657.7L250.0,657.7L298.0,657.8L297.9,697.2L271.8,697.1L271.8,697.1L242.9,697.1L242.9,674.5L242.9,674.4L242.9,657.7ZM535.8,351.5L535.9,378.7L521.3,378.7L505.3,378.7L498.2,378.6L498.1,351.4L535.8,351.5ZM535.9,412.1L535.9,449.1L505.4,449.0L505.4,444.4L505.4,412.1L521.4,412.2L535.9,412.1ZM202.9,621.5L229.9,621.4L229.9,621.5L242.8,621.6L242.9,657.7L243.0,689.8L231.5,689.8L223.0,689.7L214.6,689.8L203.0,689.8L202.9,679.4L203.0,654.2L203.0,650.8L202.9,648.0L202.9,621.5ZM334.4,411.7L334.5,437.9L262.2,437.8L262.3,444.1L247.3,444.0L247.2,439.9L247.2,418.9L247.2,411.6L299.1,411.7L334.4,411.7ZM362.1,582.2L362.1,621.6L297.9,621.6L297.8,582.2L325.5,582.2L334.5,582.2L362.1,582.2ZM521.1,237.9L521.2,265.2L498.0,265.2L498.1,237.8L521.1,237.9ZM505.3,378.7L505.4,412.1L466.8,412.1L466.7,378.6L498.2,378.6L505.3,378.7ZM611.5,444.5L611.6,487.1L607.0,487.1L607.0,487.7L606.8,488.0L606.9,488.3L606.7,488.9L606.6,489.1L606.4,489.7L606.2,489.9L606.1,490.2L606.0,490.4L605.8,490.8L605.5,491.2L605.4,491.5L605.2,491.8L605.0,492.2L604.7,492.4L604.6,492.6L604.3,492.9L604.1,493.0L603.9,493.3L603.8,493.5L603.4,493.6L603.3,493.8L602.8,494.1L602.6,494.4L601.3,495.1L601.0,495.2L600.5,495.4L600.2,495.4L599.9,495.6L599.6,495.7L599.4,495.8L599.0,495.8L598.8,495.8L598.5,495.9L598.2,495.9L597.8,496.0L597.6,496.0L597.2,496.0L597.0,496.1L596.3,496.0L596.0,495.9L595.7,496.0L595.1,495.8L594.8,495.8L593.9,495.6L593.7,495.4L592.8,495.2L592.6,495.0L592.3,494.9L591.9,494.7L591.5,494.4L591.1,494.2L590.8,493.9L590.4,493.7L590.2,493.4L590.0,493.3L589.7,493.0L589.6,492.8L589.3,492.6L589.2,492.4L588.9,492.1L588.8,492.0L588.6,491.7L587.6,489.9L587.5,489.6L587.2,489.1L587.3,488.9L587.1,488.6L587.1,488.3L586.9,487.6L586.9,487.4L586.9,487.0L582.3,487.1L582.2,444.5L611.5,444.5ZM582.2,444.5L582.3,487.1L582.3,524.0L582.4,564.6L582.4,577.9L576.0,577.9L569.1,577.9L562.8,578.0L562.7,573.7L562.8,564.6L562.7,556.6L562.8,549.6L562.7,464.1L562.6,457.1L562.6,444.4L582.2,444.5ZM505.4,412.1L505.4,444.4L466.7,444.3L466.8,412.1L505.4,412.1ZM611.6,487.1L611.6,524.0L582.3,524.0L582.3,487.1L586.9,487.0L586.9,487.6L587.1,488.3L587.1,488.6L587.3,488.9L587.2,489.1L587.5,489.6L587.6,489.9L588.6,491.7L588.8,492.0L588.9,492.1L589.2,492.4L589.3,492.6L589.6,492.8L589.7,493.0L590.0,493.3L590.2,493.4L590.4,493.7L590.8,493.9L591.1,494.2L591.5,494.4L591.9,494.7L592.3,494.9L592.6,495.0L592.8,495.2L593.7,495.4L593.9,495.6L594.8,495.8L595.1,495.8L595.7,496.0L596.0,495.9L596.3,496.0L596.6,496.0L597.0,496.1L597.6,496.0L597.8,496.0L598.2,495.9L598.5,495.9L598.8,495.8L599.0,495.8L599.4,495.8L599.6,495.7L599.9,495.6L600.2,495.4L600.5,495.4L601.0,495.2L601.3,495.1L602.6,494.4L602.8,494.1L603.3,493.8L603.4,493.6L603.8,493.5L603.9,493.3L604.1,493.0L604.3,492.9L604.6,492.6L604.7,492.4L605.0,492.2L605.2,491.8L605.4,491.5L605.5,491.2L605.8,490.8L606.0,490.4L606.1,490.2L606.2,489.9L606.4,489.7L606.6,489.1L606.7,488.9L606.9,488.3L606.8,488.0L607.0,487.4L607.0,487.1L611.6,487.1ZM471.7,623.9L471.7,627.8L471.8,636.2L471.8,643.2L471.8,644.6L471.8,651.7L471.7,655.6L416.2,655.4L416.2,623.8L471.7,623.9ZM297.8,582.2L297.9,621.6L242.8,621.6L242.8,582.1L297.8,582.2ZM468.5,293.7L468.6,323.4L451.6,323.4L451.6,293.7L456.6,293.6L463.5,293.6L468.5,293.7ZM202.8,582.0L208.0,582.0L208.0,582.0L212.8,582.0L221.9,582.1L242.8,582.1L242.8,621.6L213.5,621.5L213.5,621.5L202.9,621.5L202.9,602.2L202.8,602.2L202.8,582.0ZM557.9,449.1L558.0,457.1L558.1,464.1L558.0,481.3L505.4,481.2L505.4,449.0L535.9,449.1L557.9,449.1ZM451.6,323.4L451.7,349.6L393.4,349.5L393.4,323.3L451.6,323.4ZM356.0,456.6L356.2,577.7L334.5,577.6L325.4,577.6L283.2,577.5L283.2,556.8L266.4,556.7L266.3,456.5L343.7,456.7L350.8,456.6L356.0,456.6ZM500.8,449.0L500.8,509.7L500.8,516.7L500.9,541.6L471.6,541.5L471.7,577.7L390.8,577.7L390.6,456.7L398.2,456.6L398.1,448.9L500.8,449.0ZM631.3,582.7L631.3,607.1L562.8,607.0L562.8,582.6L569.1,582.6L569.1,577.9L576.0,577.9L576.1,582.5L582.4,582.5L582.4,577.9L611.7,578.0L611.7,582.6L618.0,582.6L618.0,578.0L625.0,577.9L625.0,582.6L631.3,582.7ZM476.4,606.9L493.8,606.9L700.4,607.2L700.4,582.8L717.8,582.7L717.8,621.8L717.8,621.7L717.8,628.2L717.8,635.1L717.8,636.5L717.8,638.2L717.8,638.2L717.8,643.5L717.8,644.9L717.8,652.0L717.9,697.8L713.3,697.7L700.5,697.7L700.5,672.9L631.4,672.7L631.5,686.0L631.4,686.1L631.4,697.7L620.3,697.6L615.7,697.6L615.8,714.8L578.5,714.8L578.4,697.6L573.8,697.6L562.9,697.6L562.9,672.7L493.8,672.5L476.4,672.5L476.3,651.6L471.8,651.7L471.8,644.6L476.4,644.6L476.4,643.2L471.8,643.2L471.8,636.2L476.4,636.2L476.4,634.8L471.8,634.8L471.7,627.8L476.4,627.8L476.4,606.9ZM717.8,628.2L722.3,628.1L722.4,635.1L717.8,635.1L717.8,628.2ZM247.2,418.9L247.2,439.9L242.6,439.9L242.6,418.9L247.2,418.9ZM334.5,577.6L334.5,582.2L325.5,582.2L325.4,577.6L334.5,577.6ZM350.8,452.0L350.8,456.6L343.7,456.7L343.7,452.0L350.8,452.0ZM611.6,564.6L611.7,578.0L582.4,577.9L582.4,564.6L611.6,564.6ZM562.8,549.6L562.7,556.6L558.1,556.6L558.1,549.7L562.8,549.6ZM540.5,392.0L540.5,398.9L535.9,398.9L535.9,392.0L540.5,392.0ZM562.4,387.1L562.4,403.9L540.5,403.8L540.5,398.9L540.5,392.0L540.5,387.1L562.4,387.1ZM540.4,294.8L540.3,301.9L535.8,301.9L535.7,294.8L540.4,294.8ZM540.4,315.5L540.4,322.4L535.8,322.4L535.8,315.5L540.4,315.5ZM192.0,561.2L196.5,561.2L196.5,561.2L202.5,561.2L202.5,556.6L221.8,556.7L221.8,561.3L230.4,561.3L230.4,577.5L221.8,577.4L221.8,582.0L212.8,582.0L212.7,577.4L192.0,577.4L192.0,561.2ZM505.5,509.7L505.5,516.7L500.8,516.7L500.8,509.7L505.5,509.7ZM562.8,564.6L562.7,573.7L558.4,573.7L558.3,564.6L562.8,564.6ZM562.6,457.1L562.7,464.1L558.1,464.1L558.0,457.1L562.6,457.1ZM562.8,582.6L562.8,607.0L493.8,606.9L493.7,582.4L562.8,582.6ZM69.2,508.8L89.6,508.8L96.1,508.8L105.4,508.9L110.2,508.9L119.6,508.9L125.1,508.9L151.2,509.0L151.1,508.9L152.6,509.0L166.2,509.0L167.5,508.9L167.6,509.0L176.6,508.9L176.5,514.4L176.7,536.5L176.8,556.5L100.1,556.5L100.1,563.2L89.2,563.3L89.3,581.9L74.7,581.8L74.7,563.2L69.4,563.2L69.3,529.0L69.2,521.4L69.2,508.8ZM176.3,438.7L176.3,443.5L176.3,458.6L176.4,462.5L163.8,462.5L152.9,462.4L142.2,462.5L142.3,458.6L142.1,442.9L142.1,438.7L176.3,438.7ZM107.3,462.4L125.3,462.4L125.3,462.3L132.4,462.4L141.7,462.4L141.7,462.4L142.2,462.5L152.9,462.4L163.8,462.5L176.4,462.5L176.6,508.9L166.2,509.0L152.6,509.0L125.1,508.9L125.0,485.5L107.5,485.6L107.3,462.4ZM176.1,415.4L200.9,415.5L217.2,415.5L242.6,415.7L242.6,418.9L242.6,439.9L242.7,522.9L264.5,523.0L264.5,556.7L221.8,556.7L202.5,556.6L193.9,556.6L193.9,556.6L176.8,556.5L176.8,555.2L176.8,555.2L176.7,536.5L176.6,525.3L176.6,525.3L176.5,514.4L176.6,508.9L176.4,462.5L176.3,458.6L176.3,443.5L176.3,438.7L176.1,415.4ZM635.8,457.2L635.8,464.2L631.2,464.2L631.2,457.2L635.8,457.2ZM61.2,699.2L61.3,711.0L51.1,710.9L51.1,732.9L61.4,732.9L61.4,743.7L28.6,743.6L28.6,743.3L28.5,743.1L28.5,743.0L27.6,741.4L27.5,741.4L27.3,741.0L27.1,740.8L27.0,740.7L26.8,740.6L26.7,740.5L26.6,740.4L26.5,740.3L26.3,740.2L26.3,740.1L26.1,740.1L25.9,739.9L25.8,739.8L25.4,739.7L25.3,739.5L23.8,739.0L23.5,739.1L23.0,738.9L22.9,739.0L22.7,739.0L22.4,739.0L22.1,738.9L21.9,739.1L21.7,739.0L21.5,739.1L21.4,739.1L21.1,739.3L20.9,739.2L20.4,739.5L20.3,739.4L19.2,740.0L19.0,740.2L18.7,740.4L18.6,740.6L18.3,740.8L18.2,741.0L18.1,741.0L18.0,741.2L17.9,741.3L17.8,741.5L17.7,741.5L17.7,741.6L17.5,741.8L17.4,741.9L17.3,742.2L17.2,742.4L17.2,742.6L17.1,742.6L16.8,743.5L0.6,743.5L0.6,699.1L61.2,699.2ZM44.6,567.8L44.6,581.8L44.8,699.2L0.6,699.1L0.4,586.9L24.0,586.8L24.0,582.3L24.0,578.2L30.9,578.2L30.9,567.8L44.6,567.8ZM71.5,711.0L71.6,732.9L51.1,732.9L51.1,710.9L61.3,711.0L71.5,711.0ZM243.0,713.6L243.0,743.9L226.9,743.8L226.7,743.4L226.7,743.2L225.8,741.6L225.6,741.4L225.5,741.3L225.3,741.1L225.1,740.8L224.9,740.8L224.9,740.7L224.7,740.5L224.6,740.4L224.4,740.3L224.2,740.1L223.8,740.0L223.7,739.8L221.8,739.3L221.6,739.3L221.3,739.2L221.2,739.3L220.9,739.2L220.5,739.2L220.4,739.3L220.3,739.2L220.1,739.3L219.9,739.3L219.8,739.4L219.6,739.4L219.3,739.5L219.1,739.5L218.8,739.6L218.7,739.6L217.4,740.3L217.3,740.5L216.9,740.7L216.9,740.9L216.5,741.1L216.5,741.2L216.3,741.3L216.3,741.4L216.1,741.5L216.0,741.7L215.9,741.8L215.9,741.9L215.7,742.1L215.7,742.2L215.5,742.6L215.4,742.9L215.3,742.9L215.0,743.8L203.1,743.9L203.0,713.6L214.6,713.6L231.5,713.6L243.0,713.6ZM123.8,699.3L123.9,709.7L116.2,709.7L116.2,735.0L123.9,735.0L123.9,743.8L61.4,743.7L61.4,732.9L71.6,732.9L71.5,711.0L61.3,711.0L61.2,699.2L123.8,699.3ZM203.1,699.4L203.0,713.6L203.1,743.9L123.9,743.8L123.9,735.0L131.4,735.1L131.5,709.7L123.9,709.7L123.8,699.3L203.1,699.4ZM131.5,709.7L131.4,735.1L123.9,735.0L116.2,735.0L116.2,709.7L123.9,709.7L131.5,709.7ZM64.6,563.1L64.7,581.9L54.4,581.8L54.4,563.1L64.6,563.1ZM125.0,485.5L125.1,508.9L119.6,508.9L110.2,508.9L105.4,508.9L96.1,508.8L89.6,508.8L89.5,485.5L107.5,485.6L125.0,485.5ZM1115.4,667.2L1115.4,698.3L1086.4,698.2L1086.4,667.1L1115.4,667.2ZM995.0,667.0L995.0,698.2L953.2,698.1L953.1,666.9L995.0,667.0ZM1152.9,638.1L1153.0,655.4L1120.3,655.4L1120.3,638.0L1152.9,638.1ZM997.5,727.4L997.4,744.9L987.9,744.8L953.3,744.9L953.2,713.9L961.2,713.8L979.5,732.1L979.5,740.2L988.0,740.3L988.0,732.2L992.6,732.2L997.5,727.4ZM1065.3,601.4L1065.5,625.4L1027.2,625.3L1027.2,613.5L1027.2,601.3L1065.3,601.4ZM895.2,606.8L895.2,666.9L833.2,666.8L833.1,606.7L895.2,606.8ZM1065.7,698.2L1065.8,745.0L1022.2,745.0L1022.2,698.1L1027.3,698.1L1057.3,698.3L1065.7,698.2ZM1120.2,625.5L1120.3,638.0L1120.3,655.4L1073.8,655.2L1027.3,655.2L1027.2,625.3L1065.5,625.4L1083.3,625.5L1120.2,625.5ZM994.8,583.1L995.0,613.5L953.0,613.5L953.1,583.1L994.8,583.1ZM1086.4,667.1L1086.4,698.2L1065.7,698.2L1057.3,698.3L1057.3,667.1L1086.4,667.1ZM802.8,645.2L802.9,666.7L777.2,666.7L777.1,645.1L787.5,645.1L802.8,645.2ZM777.2,666.7L778.3,666.6L778.3,666.7L802.9,666.7L833.2,666.8L895.2,666.9L953.1,666.9L953.2,698.1L795.6,697.8L795.6,697.8L777.2,697.8L777.2,694.1L777.2,694.1L777.2,666.7ZM1050.6,505.0L1050.6,547.7L1050.7,568.6L1019.1,568.5L1006.4,568.4L1006.4,547.6L1018.9,547.6L1018.9,535.1L1006.4,535.1L1006.3,504.9L1050.6,505.0ZM1022.2,698.1L1022.2,745.0L997.4,744.9L997.5,727.4L992.6,732.2L988.0,732.2L979.5,732.1L961.2,713.8L961.3,706.7L953.2,706.7L953.2,698.1L995.0,698.2L1022.2,698.1ZM1153.0,655.4L1153.0,698.3L1136.0,698.4L1136.0,667.2L1135.9,655.3L1153.0,655.4ZM1057.3,667.1L1057.3,698.3L1027.3,698.1L1027.3,667.0L1057.3,667.1ZM1199.9,655.4L1200.0,698.4L1153.0,698.3L1153.0,655.4L1199.9,655.4ZM1027.2,583.2L1027.2,613.5L995.0,613.5L994.8,583.1L1006.4,583.1L1019.2,583.1L1027.2,583.2ZM1131.7,698.3L1131.7,745.0L1065.8,745.0L1065.7,698.2L1086.4,698.2L1115.4,698.3L1131.7,698.3ZM1018.9,535.1L1018.9,547.6L1006.4,547.6L1006.4,535.1L1018.9,535.1ZM1027.2,613.5L1027.2,625.3L1027.3,655.2L1027.3,667.0L995.0,667.0L994.9,648.9L994.9,631.6L995.0,613.5L1027.2,613.5ZM722.4,666.6L762.0,666.7L761.9,666.6L777.2,666.7L777.2,697.8L722.5,697.8L722.4,666.6ZM1186.5,576.3L1186.5,589.5L1152.9,589.4L1152.9,576.3L1186.5,576.3ZM1200.0,698.4L1199.9,745.2L1131.7,745.0L1131.7,698.3L1136.0,698.4L1153.0,698.3L1200.0,698.4ZM1135.9,655.3L1136.0,667.2L1115.4,667.2L1086.4,667.1L1057.3,667.1L1027.3,667.0L1027.3,655.2L1073.8,655.2L1120.3,655.4L1135.9,655.3ZM1136.0,667.2L1136.0,698.4L1115.4,698.3L1115.4,667.2L1136.0,667.2ZM912.1,583.0L912.2,606.8L895.2,606.8L833.1,606.7L816.3,606.7L816.2,582.9L857.2,583.0L871.2,582.9L912.1,583.0ZM1120.2,601.5L1120.2,625.5L1083.3,625.5L1083.2,601.4L1120.2,601.5ZM1152.8,583.3L1152.9,589.4L1152.9,629.6L1152.9,638.1L1120.3,638.0L1120.2,625.5L1120.2,601.5L1120.2,583.2L1129.3,583.3L1152.8,583.3ZM1199.8,629.7L1199.9,655.4L1153.0,655.4L1152.9,638.1L1152.9,629.6L1199.8,629.7ZM1120.2,583.2L1120.2,601.5L1083.2,601.4L1074.3,601.5L1065.3,601.4L1027.2,601.3L1027.2,583.2L1120.2,583.2ZM1027.3,667.0L1027.3,698.1L1022.2,698.1L995.0,698.2L995.0,667.0L1027.3,667.0ZM953.1,583.1L953.0,613.5L912.1,613.4L912.2,606.8L912.1,583.0L953.1,583.1ZM1199.8,576.3L1199.8,629.7L1152.9,629.6L1152.9,589.4L1186.5,589.5L1186.5,576.3L1199.8,576.3ZM1019.1,568.5L1019.2,583.1L1006.4,583.1L1006.4,568.4L1019.1,568.5ZM871.1,578.3L871.1,583.0L857.2,583.0L857.2,578.3L857.7,578.3L861.6,578.5L862.8,578.4L864.1,578.5L866.8,578.4L868.2,578.4L870.7,578.3L871.1,578.3ZM1129.2,568.7L1129.3,583.3L1120.2,583.2L1120.1,568.7L1129.2,568.7ZM1083.2,601.4L1083.3,625.5L1065.5,625.4L1065.3,601.4L1074.3,601.5L1083.2,601.4ZM1187.4,547.0L1187.5,568.7L1129.2,568.7L1120.1,568.7L1065.4,568.6L1065.3,546.8L1187.4,547.0ZM722.4,644.9L722.4,652.0L717.8,652.0L717.8,644.9L722.4,644.9ZM722.4,636.5L722.4,643.5L717.8,643.5L717.8,636.5L722.4,636.5Z" fill="#f6f5f3" stroke="#c2beb8" stroke-width="1.5"/></g>
<rect width="1200" height="630" fill="#ffffff" opacity="0.45"/>

<!-- Navigation route: white casing under red line so it pops over plan strokes -->
<polyline points="598,588 598,565 749,565 749,537 1013,537 1013,470 1095,470" fill="none" stroke="#ffffff" stroke-width="13" stroke-linejoin="round" stroke-linecap="round"/>
<polyline points="598,588 598,565 749,565 749,537 1013,537 1013,470 1095,470" fill="none" stroke="#e4002b" stroke-width="7.5" stroke-linejoin="round" stroke-linecap="round"/>
<circle cx="598" cy="588" r="12" fill="#ffffff" stroke="#e4002b" stroke-width="6.5"/>
<g transform="translate(1095,470) scale(1.45) translate(-24,-66)">
  <path d="M24 0C10.7 0 0 10.7 0 24c0 18 24 42 24 42s24-24 24-42C48 10.7 37.3 0 24 0z" fill="#e4002b"/>
  <circle cx="24" cy="23" r="9" fill="#ffffff"/>
</g>

<!-- Branding (regenerable text block). Wordmark matches the app header
     (apps/mobile/src/app/index.tsx styles.wordmark / wordmarkAccent): serif
     bold uppercase, default tracking, MUSE in ink + WALK in Met red. -->
<g id="text-layer">
  <text x="600" y="288" text-anchor="middle" font-family="Georgia, 'Liberation Serif', 'Times New Roman', serif" font-size="128" font-weight="bold" fill="#111111">MUSE<tspan fill="#e4002b">WALK</tspan></text>
  <text x="600" y="352" text-anchor="middle" font-family="'Helvetica Neue', Helvetica, 'Liberation Sans', Arial, sans-serif" font-size="32" fill="#494643" letter-spacing="0.5">Find any artwork. Never get lost.</text>
  <text x="600" y="403" text-anchor="middle" font-family="'Helvetica Neue', Helvetica, 'Liberation Sans', Arial, sans-serif" font-size="21" fill="#6b6660" letter-spacing="0.4">An unofficial companion for The Met</text>
</g>
</svg>